<?xml version="1.0" encoding="UTF-8"?>
<svg version="1.1" xmlns="http://www.w3.org/2000/svg" width="1287" height="858">
<path d="M0 0 C424.71 0 849.42 0 1287 0 C1287 283.14 1287 566.28 1287 858 C862.29 858 437.58 858 0 858 C0 574.86 0 291.72 0 0 Z " fill="#000000" transform="translate(0,0)"/>
<path d="M0 0 C4.69497556 -0.3234878 9.3833894 -0.5580634 14.08691406 -0.71411133 C15.68246408 -0.77916664 17.27724814 -0.86766316 18.87011719 -0.98071289 C24.16446623 -1.34681149 28.84482423 -1.38286289 34 0 C37.93147734 3.76751363 39.81521415 8.0689768 42 13 C43.16554562 15.05190615 44.35514473 17.09036684 45.5703125 19.11328125 C46.75697847 21.17867148 47.94182352 23.24510881 49.125 25.3125 C50.44088896 27.6031642 51.75719222 29.89358404 53.07421875 32.18359375 C53.73083496 33.32554199 54.38745117 34.46749023 55.06396484 35.64404297 C58.00017064 40.73371318 60.96887249 45.80419666 63.9375 50.875 C69.35993153 60.14543507 74.70324222 69.45937067 80.02023315 78.79046631 C84.63484046 86.88707874 89.29087148 94.95787441 94 103 C101.1934252 115.28538865 108.25340635 127.64550448 115.29931641 140.01586914 C115.86054199 141.00063232 116.42176758 141.98539551 117 143 C117.51720612 144.19826416 118.03441223 145.39652832 118.56729126 146.63110352 C119.57108217 148.51520148 119.57108217 148.51520148 121 150 C124.20176471 150.72976227 126.41570922 150.94852055 129.62402344 150.88647461 C130.49267532 150.89725037 131.36132721 150.90802612 132.25630188 150.91912842 C135.12485577 150.9465173 137.99081263 150.92464205 140.859375 150.90234375 C142.84907667 150.91172662 144.83876604 150.92418304 146.82843018 150.93959045 C152.06312551 150.97186256 157.2969462 150.96235713 162.53167725 150.94421387 C167.87408073 150.93306887 173.21625865 150.96134683 178.55859375 150.98632812 C189.03921871 151.02951573 199.51934226 151.0285791 210 151 C210.30372025 150.06097839 210.60744049 149.12195679 210.92036438 148.15447998 C211.93867834 145.17916966 213.12870818 142.77305695 214.73046875 140.078125 C215.27832031 139.14871094 215.82617188 138.21929688 216.390625 137.26171875 C216.98359375 136.26785156 217.5765625 135.27398438 218.1875 134.25 C219.46292098 132.08894367 220.73763673 129.927471 222.01171875 127.765625 C222.67091309 126.64994141 223.33010742 125.53425781 224.00927734 124.38476562 C227.20917261 118.94408032 230.35372894 113.47181155 233.5 108 C238.28403448 99.69147184 243.09573926 91.40000926 247.9375 83.125 C253.3579418 73.85739656 258.69940444 64.54640368 264.01519775 55.21859741 C267.5679697 48.98598914 271.13037392 42.7595353 274.73828125 36.55859375 C275.33213623 35.53572266 275.92599121 34.51285156 276.5378418 33.45898438 C277.71088703 31.46178973 278.90094862 29.47448227 280.10864258 27.49804688 C282.92883265 22.84289632 285.30951348 18.43962534 287.0859375 13.28515625 C290.98462398 2.95131089 290.98462398 2.95131089 296 0 C307.46158508 -2.33801391 319.44373256 -1.14680517 331 0 C329.64356979 3.60810437 328.02706822 6.86336399 326.0859375 10.19140625 C325.2040979 11.71048584 325.2040979 11.71048584 324.30444336 13.26025391 C323.66772705 14.34999512 323.03101074 15.43973633 322.375 16.5625 C321.0076454 18.91451229 319.64263628 21.26788404 318.27734375 23.62109375 C317.9251326 24.22739624 317.57292145 24.83369873 317.21003723 25.45837402 C313.75486926 31.41022035 310.3448126 37.3874235 306.93875122 43.36746216 C301.08943831 53.63500399 295.18289551 63.86748132 289.21630859 74.06738281 C284.97359889 81.32240439 280.75991429 88.59368236 276.5625 95.875 C275.94052734 96.95394531 275.31855469 98.03289062 274.67773438 99.14453125 C272.78470874 102.42942992 270.89224402 105.71465103 269 109 C261.71806429 121.64303109 254.42940758 134.28124536 247.0625 146.875 C241.32246579 156.69138458 235.66676663 166.55465494 230.03369141 176.43261719 C223.68237863 187.56868885 217.27749144 198.67347797 210.86328125 209.7734375 C208.9796495 213.03524007 207.09877679 216.29861844 205.21875 219.5625 C198.93562935 230.46932396 192.63977445 241.36872123 186.3125 252.25 C185.7362085 253.24402832 185.15991699 254.23805664 184.56616211 255.26220703 C183.05847292 257.85034323 181.53504852 260.42802051 180 263 C179.63567871 263.62455078 179.27135742 264.24910156 178.89599609 264.89257812 C176.7580545 268.37220348 174.74358674 270.34052946 171 272 C168.1328125 272.50390625 168.1328125 272.50390625 165.125 272.5625 C163.64386719 272.62630859 163.64386719 272.62630859 162.1328125 272.69140625 C157.02533869 271.5641957 153.71967391 268.43719989 150.734375 264.20629883 C149.55743477 262.21246917 148.4879198 260.18823342 147.4375 258.125 C146.57829571 256.51154008 145.71615694 254.89964046 144.8515625 253.2890625 C144.39426758 252.4321582 143.93697266 251.57525391 143.46582031 250.69238281 C140.8561504 245.8990051 138.07811712 241.20455103 135.3125 236.5 C134.10893708 234.44556899 132.90581962 232.39087695 131.703125 230.3359375 C131.09404297 229.2953418 130.48496094 228.25474609 129.85742188 227.18261719 C126.74002807 221.8410891 123.65057458 216.48351626 120.5625 211.125 C119.94028564 210.04541016 119.31807129 208.96582031 118.67700195 207.85351562 C117.41488483 205.6631748 116.15292215 203.47274498 114.89111328 201.28222656 C112.3868587 196.9358286 109.88006648 192.59089727 107.37304688 188.24609375 C105.49709485 184.99496521 103.62159471 181.74357626 101.74609375 178.4921875 C99.26069098 174.18398349 96.77358023 169.87677211 94.28515625 165.5703125 C87.46632759 153.76604905 80.67941259 141.94445254 73.92666626 130.10232544 C68.67576874 120.89730947 63.36059559 111.73142288 58.00756836 102.58544922 C54.29982551 96.24519308 50.63369854 89.88295377 47 83.5 C42.77383335 76.07768503 38.49818851 68.68604613 34.1875 61.3125 C27.35136747 49.61791842 20.56844477 37.89335941 13.81494141 26.15087891 C12.01051388 23.0182529 10.19913233 19.88972962 8.38671875 16.76171875 C7.27845871 14.8412538 6.1703765 12.92068623 5.0625 11 C4.54800293 10.11546143 4.03350586 9.23092285 3.50341797 8.31958008 C2.80756592 7.10951294 2.80756592 7.10951294 2.09765625 5.875 C1.48676147 4.81925781 1.48676147 4.81925781 0.86352539 3.7421875 C0 2 0 2 0 0 Z " fill="#FCFCFC" transform="translate(469,577)"/>
<path d="M0 0 C6.7417688 6.65184741 8.56645834 20.05382431 11.35180664 28.97460938 C12.05507371 31.22622363 12.76256985 33.47647455 13.47070312 35.7265625 C15.66466668 42.71704403 17.81131117 49.71679154 19.8515625 56.75390625 C22.21956781 64.89649203 24.74400278 72.98971861 27.27734375 81.08203125 C27.59505265 82.09692249 27.59505265 82.09692249 27.91917992 83.13231659 C29.46492629 88.06801406 31.01354828 93.00280771 32.5625 97.9375 C34.32318351 103.54768591 36.08275145 109.15821945 37.83984375 114.76953125 C38.16133204 115.79612036 38.16133204 115.79612036 38.48931503 116.84344864 C40.88263535 124.49054979 43.25440073 132.14269204 45.53515625 139.82421875 C48.28808858 149.09496245 51.15722002 158.32875758 54.03125 167.5625 C54.27622789 168.34967093 54.52120579 169.13684185 54.77360725 169.94786644 C56.55601119 175.67401206 58.34031233 181.39956582 60.125 187.125 C62.15750189 193.64544387 64.18926978 200.16611492 66.21875 206.6875 C66.46176723 207.46835527 66.70478447 208.24921055 66.95516586 209.0537281 C70.38702321 220.0861563 73.75965319 231.13410703 77.05163574 242.20916748 C77.93064542 245.14627997 78.83559242 248.07520997 79.7421875 251.00390625 C80.03867187 251.96361328 80.33515625 252.92332031 80.640625 253.91210938 C81.23435589 255.82959028 81.83088877 257.74620502 82.4296875 259.66210938 C82.8628125 261.06879883 82.8628125 261.06879883 83.3046875 262.50390625 C83.55976074 263.3244751 83.81483398 264.14504395 84.07763672 264.99047852 C84.625 267.125 84.625 267.125 84.625 270.125 C74.395 270.125 64.165 270.125 53.625 270.125 C51.02837542 263.63343854 48.76414949 257.55523058 46.9609375 250.87890625 C44.53649131 242.17002343 41.92985364 233.52861533 39.2265625 224.90234375 C39.03011705 224.27546724 38.83367161 223.64859074 38.63127327 223.00271797 C37.60298262 219.72296182 36.57253451 216.44388921 35.54067993 213.16525269 C33.5349143 206.79177631 31.53807426 200.41550096 29.54110909 194.03926277 C29.08905508 192.59588201 28.63692057 191.15252647 28.18470573 189.70919609 C23.2434209 173.93660845 18.37372057 158.14234555 13.52978516 142.33959961 C12.89103116 140.25632293 12.25219626 138.17307106 11.61328125 136.08984375 C11.13858398 134.5419944 11.13858398 134.5419944 10.65429688 132.96287537 C8.27788755 125.22501943 5.87538478 117.49544872 3.46426964 109.76835823 C2.06958779 105.29669589 0.67861425 100.82387721 -0.71328735 96.35134888 C-1.48240313 93.88430705 -2.25351378 91.41788617 -3.02670288 88.95211792 C-4.09572191 85.54253259 -5.15792161 82.13089095 -6.21875 78.71875 C-6.70025261 77.19303123 -6.70025261 77.19303123 -7.19148254 75.63648987 C-7.4808519 74.70135056 -7.77022125 73.76621124 -8.06835938 72.80273438 C-8.32210327 71.99139038 -8.57584717 71.18004639 -8.83728027 70.34411621 C-9.375 68.125 -9.375 68.125 -9.375 64.125 C-10.035 64.125 -10.695 64.125 -11.375 64.125 C-11.47321045 65.05876465 -11.5714209 65.9925293 -11.67260742 66.95458984 C-12.41101538 72.08562173 -14.04171403 76.92502571 -15.61328125 81.8515625 C-15.93532028 82.87623627 -16.25735931 83.90091003 -16.5891571 84.95663452 C-17.61683798 88.22272325 -18.65197359 91.48639126 -19.6875 94.75 C-20.37225392 96.92041235 -21.05650358 99.09098387 -21.74023438 101.26171875 C-22.71183666 104.3461709 -23.68407214 107.43040067 -24.66047668 110.51333618 C-26.93746068 117.70546706 -29.16334874 124.91253687 -31.375 132.125 C-32.08532087 134.43664426 -32.79577353 136.74824803 -33.50634766 139.05981445 C-33.87418365 140.25689529 -34.24201965 141.45397614 -34.6210022 142.68733215 C-36.08303227 147.44487924 -37.54565839 152.20224294 -39.00843239 156.95956135 C-40.10447484 160.52427419 -41.20026035 164.08906555 -42.29541016 167.65405273 C-43.58414856 171.84904556 -44.87371137 176.0437842 -46.1640625 180.23828125 C-46.37682705 180.92993504 -46.5895916 181.62158882 -46.80880356 182.33420181 C-50.53986087 194.45792684 -54.31429951 206.56786973 -58.11636353 218.66950989 C-60.14478416 225.13706539 -62.13244861 231.6091269 -64 238.125 C-67.11307435 248.90275561 -70.79157432 259.49619502 -74.375 270.125 C-84.605 270.125 -94.835 270.125 -105.375 270.125 C-104.7295611 265.60692773 -104.18628416 262.04728533 -102.86303711 257.83129883 C-102.55378296 256.8365152 -102.24452881 255.84173157 -101.92590332 254.81680298 C-101.41924133 253.21559097 -101.41924133 253.21559097 -100.90234375 251.58203125 C-100.3701825 249.87713028 -100.3701825 249.87713028 -99.82727051 248.13778687 C-98.86149636 245.04635353 -97.89112766 241.95640754 -96.91889572 238.86700058 C-95.89825686 235.6194129 -94.88387865 232.36987285 -93.86938477 229.12036133 C-93.4554977 227.79484321 -93.04160301 226.46932747 -92.62770081 225.14381409 C-92.421532 224.48353273 -92.2153632 223.82325138 -92.00294685 223.1429615 C-91.37175894 221.12243739 -90.73985877 219.10213726 -90.10777283 217.08189392 C-85.96543486 203.83891666 -81.88466203 190.57720943 -77.8125 177.3125 C-76.49782496 173.03372222 -75.18259484 168.75511521 -73.8671875 164.4765625 C-73.56054169 163.47902954 -73.25389587 162.48149658 -72.93795776 161.45373535 C-68.78074625 147.93440818 -64.58488524 134.42711331 -60.37744141 120.92333984 C-55.15902082 104.17263688 -50.00564753 87.40276624 -44.875 70.625 C-36.32953805 42.68454672 -36.32953805 42.68454672 -32.1875 29.3125 C-31.84976563 28.219375 -31.51203125 27.12625 -31.1640625 26 C-30.24441793 23.03836912 -29.31383738 20.08059916 -28.375 17.125 C-28.03178711 16.03993164 -27.68857422 14.95486328 -27.33496094 13.83691406 C-26.98852539 12.76538086 -26.64208984 11.69384766 -26.28515625 10.58984375 C-25.97586182 9.62812256 -25.66656738 8.66640137 -25.34790039 7.67553711 C-23.54470997 2.94832749 -21.22586156 0.11499572 -16.6875 -2.3125 C-10.58007105 -3.34961058 -5.46244631 -3.03469239 0 0 Z " fill="#FCFCFC" transform="translate(493.375,109.875)"/>
<path d="M0 0 C6.22169952 5.1156196 8.11640943 10.38808855 10.39453125 17.890625 C10.72550812 18.94911148 11.05648499 20.00759796 11.39749146 21.09815979 C12.48410065 24.58302804 13.55468177 28.07259718 14.625 31.5625 C15.38072105 33.99856131 16.13732413 36.43434916 16.89477539 38.86987305 C18.83840517 45.13072735 20.76786677 51.39584027 22.69177246 57.66278076 C23.7628979 61.15096767 24.83652292 64.63837347 25.91113281 68.12548828 C31.15790258 85.15668774 36.37336664 102.19746574 41.51171875 119.26171875 C42.3201346 121.94536614 43.12873596 124.62895752 43.9375 127.3125 C44.12902649 127.948461 44.32055298 128.584422 44.5178833 129.23965454 C48.62079462 142.84594772 52.92689055 156.3874449 57.26025391 169.921875 C59.91762753 178.23548271 62.49815323 186.56134284 64.93424988 194.94250488 C67.15395373 202.54699995 69.55930235 210.09058016 71.96252441 217.63867188 C74.55146434 225.78288272 77.11332329 233.93568076 79.67382812 242.08886719 C80.35877332 244.26709847 81.04533877 246.44482082 81.73339844 248.62207031 C82.74034005 251.80930054 83.7418321 254.99819744 84.7421875 258.1875 C85.20611404 259.64978027 85.20611404 259.64978027 85.67941284 261.14160156 C85.96035797 262.04104492 86.2413031 262.94048828 86.53076172 263.8671875 C86.77913788 264.65593262 87.02751404 265.44467773 87.28341675 266.25732422 C87.8125 268.3125 87.8125 268.3125 87.8125 271.3125 C77.2525 271.3125 66.6925 271.3125 55.8125 271.3125 C54.26755859 266.31416016 54.26755859 266.31416016 52.69140625 261.21484375 C52.33388779 260.05817703 51.97636932 258.90151031 51.60801697 257.70979309 C49.75627236 251.71890237 47.90458454 245.7279941 46.05297852 239.73706055 C45.25668081 237.16064217 44.46037475 234.58422638 43.6640625 232.0078125 C43.46269873 231.35631289 43.26133495 230.70481327 43.05386925 230.03357124 C40.19051096 220.76948202 37.32607488 211.50572668 34.4609375 202.2421875 C27.05446282 178.29355814 19.66249665 154.34056637 12.29550171 130.37976074 C7.75492847 115.61233033 3.19984106 100.84965815 -1.390625 86.09765625 C-3.33720458 79.84033089 -5.26352181 73.57680614 -7.1875 67.3125 C-9.43510971 70.68391456 -10.36438728 73.96330079 -11.4375 77.8125 C-13.41987707 84.73493412 -15.52024375 91.60818586 -17.70721436 98.46844482 C-19.80831236 105.07713399 -21.85340534 111.70221637 -23.88671875 118.33203125 C-26.59807926 127.15799776 -29.32071145 135.98031282 -32.0625 144.796875 C-32.55469025 146.37982361 -32.55469025 146.37982361 -33.05682373 147.99475098 C-33.74285448 150.20092842 -34.42892092 152.40709477 -35.11502075 154.61325073 C-44.029617 183.28388901 -52.86666443 211.97821468 -61.68660831 240.67809582 C-62.70733908 243.99945139 -63.7282773 247.32074319 -64.74920464 250.64203835 C-65.45802866 252.94849671 -66.16641897 255.25508796 -66.87477112 257.56169128 C-67.30199619 258.95185833 -67.7292363 260.34202076 -68.15649414 261.73217773 C-68.71126183 263.53826759 -68.71126183 263.53826759 -69.27723694 265.38084412 C-69.89319464 267.3646399 -70.53062485 269.34187455 -71.1875 271.3125 C-81.7475 271.3125 -92.3075 271.3125 -103.1875 271.3125 C-99.81211783 257.8109713 -99.81211783 257.8109713 -97.81494141 251.39526367 C-97.59820267 250.69584152 -97.38146393 249.99641937 -97.15815735 249.27580261 C-96.45501436 247.009675 -95.74716152 244.74505212 -95.0390625 242.48046875 C-94.53941492 240.87453283 -94.04002018 239.26851823 -93.54086304 237.66242981 C-92.49902356 234.31263904 -91.45498716 230.96354427 -90.40917969 227.61499023 C-89.08252647 223.36700138 -87.76010689 219.11771016 -86.43920326 214.86793041 C-85.40915593 211.55484647 -84.3774705 208.24227446 -83.34525681 204.92986488 C-82.85781248 203.36540624 -82.37070171 201.80084362 -81.88396072 200.236166 C-79.50287191 192.5865467 -77.08683271 184.95421912 -74.52856445 177.36181641 C-72.63082089 171.70883254 -70.89910569 166.04092172 -69.31640625 160.29296875 C-66.42670536 150.00660046 -63.28070315 139.81078775 -60.06912231 129.62097168 C-58.75168091 125.44035115 -57.44062482 121.25773568 -56.12919617 117.07522583 C-55.45523753 114.92578931 -54.78101323 112.77643607 -54.10652161 110.62716675 C-51.22691191 101.4488483 -48.37020904 92.2635842 -45.52764893 83.07373047 C-44.7501068 80.56284489 -43.9697695 78.05284149 -43.18896484 75.54296875 C-40.44429309 66.7053434 -37.74454312 57.85621103 -35.10585022 48.98629761 C-33.68110349 44.20347796 -32.2430724 39.42469502 -30.8041687 34.64611816 C-30.10747776 32.31904173 -29.41719198 29.99003701 -28.7336731 27.65905762 C-27.77731307 24.39917164 -26.79914081 21.14654737 -25.81640625 17.89453125 C-25.39983765 16.44271202 -25.39983765 16.44271202 -24.97485352 14.96156311 C-23.15427247 9.03331585 -20.89499587 4.46927913 -16.1875 0.3125 C-10.72472964 -2.3607706 -5.44434865 -2.88230222 0 0 Z " fill="#FCFCFC" transform="translate(793.1875,108.6875)"/>
<path d="M0 0 C5.51638893 3.26151462 8.68390781 6.44049266 10.61621094 12.66503906 C10.9084404 13.59260513 11.20066986 14.5201712 11.50175476 15.47584534 C11.81055069 16.48412888 12.11934662 17.49241241 12.4375 18.53125 C12.770345 19.59524521 13.10319 20.65924042 13.44612122 21.75547791 C14.5393861 25.25654454 15.62138032 28.76098346 16.703125 32.265625 C17.45625054 34.68682246 18.21008278 37.1078002 18.96459961 39.52856445 C20.52086062 44.52460354 22.07293904 49.52191679 23.62255859 54.52001953 C25.86450547 61.74253762 28.13398363 68.95617631 30.41015625 76.16796875 C31.44692842 79.45907631 32.48326449 82.75032081 33.51940918 86.04162598 C34.18258811 88.14622971 34.84689165 90.2504794 35.5123291 92.35437012 C36.4354492 95.27535512 37.35316826 98.19798312 38.26953125 101.12109375 C38.54368362 101.98419662 38.817836 102.8472995 39.10029602 103.73655701 C39.34636093 104.52498489 39.59242584 105.31341278 39.84594727 106.12573242 C40.16874413 107.15049934 40.16874413 107.15049934 40.49806213 108.19596863 C40.953125 110.015625 40.953125 110.015625 40.953125 113.015625 C30.393125 113.015625 19.833125 113.015625 8.953125 113.015625 C2.023125 90.245625 2.023125 90.245625 -5.046875 67.015625 C-6.98873266 71.5466262 -8.60517872 75.52899418 -9.94921875 80.18359375 C-10.44905273 81.89579102 -10.44905273 81.89579102 -10.95898438 83.64257812 C-11.29736328 84.81755859 -11.63574219 85.99253906 -11.984375 87.203125 C-12.65806995 89.53055283 -13.33383879 91.85738139 -14.01171875 94.18359375 C-14.3068335 95.20735107 -14.60194824 96.2311084 -14.90600586 97.28588867 C-16.51952055 102.56080071 -18.30250902 107.78252706 -20.046875 113.015625 C-30.606875 113.015625 -41.166875 113.015625 -52.046875 113.015625 C-49.80560915 104.05056162 -47.29024241 95.49552024 -44.27148438 86.80664062 C-42.06776233 80.35133696 -40.11173361 73.85127474 -38.2578125 67.2890625 C-35.13353487 56.23304038 -31.84869234 45.23105501 -28.46020508 34.25317383 C-27.80195319 32.11142606 -27.14974129 29.96781384 -26.50317383 27.82250977 C-25.55101212 24.66504169 -24.58034657 21.51379893 -23.60546875 18.36328125 C-23.32199081 17.4101857 -23.03851288 16.45709015 -22.7464447 15.47511292 C-20.5580688 8.51173449 -18.2560057 3.76605993 -11.609375 0.140625 C-7.23068535 -1.2421191 -4.27173958 -2.05434804 0 0 Z " fill="#FBFBFB" transform="translate(791.046875,266.984375)"/>
<path d="M0 0 C5.49671584 3.58481468 8.25609689 7.83977162 10.140625 14.0234375 C10.43528656 14.96478043 10.43528656 14.96478043 10.73590088 15.92514038 C11.19320732 17.38842324 11.64447691 18.85360068 12.09106445 20.32019043 C12.97739476 23.20869979 13.89219007 26.08733392 14.81054688 28.96582031 C17.09785349 36.13891316 19.36281347 43.31895113 21.625 50.5 C22.02820712 51.77949377 22.43142576 53.0589839 22.83465576 54.33847046 C24.81218896 60.61400364 26.78810538 66.89004389 28.76269531 73.16650391 C30.28618412 78.00788646 31.81466057 82.84764965 33.34802246 87.68591309 C34.40308058 91.018395 35.45122488 94.35303558 36.5 97.6875 C37.03898926 99.37963623 37.03898926 99.37963623 37.58886719 101.10595703 C38.05921387 102.61005127 38.05921387 102.61005127 38.5390625 104.14453125 C38.80154785 104.97573486 39.0640332 105.80693848 39.33447266 106.66333008 C39.875 108.875 39.875 108.875 39.875 112.875 C29.645 112.875 19.415 112.875 8.875 112.875 C0.90696076 89.24564224 0.90696076 89.24564224 -2.625 77.5625 C-3.00712646 76.31098145 -3.00712646 76.31098145 -3.39697266 75.03417969 C-4.33460726 71.89208533 -5.125 69.17264401 -5.125 65.875 C-5.785 65.875 -6.445 65.875 -7.125 65.875 C-7.22441895 66.53056885 -7.32383789 67.1861377 -7.42626953 67.86157227 C-8.62418138 75.12271174 -10.58856541 81.86954056 -13 88.8125 C-13.33902344 89.80701172 -13.67804688 90.80152344 -14.02734375 91.82617188 C-14.67068875 93.71339875 -15.31716339 95.59956486 -15.96826172 97.48413086 C-17.71514795 102.60496303 -19.41401977 107.7420593 -21.125 112.875 C-31.685 112.875 -42.245 112.875 -53.125 112.875 C-46.70498934 91.59891036 -40.20766951 70.35145321 -33.56323242 49.14453125 C-32.39436786 45.41322805 -31.2304284 41.68040578 -30.06745243 37.94726372 C-29.15283767 35.01417506 -28.23491557 32.08212922 -27.31606865 29.15036392 C-26.88471071 27.77215142 -26.45453754 26.39356745 -26.02565193 25.01458359 C-19.73556904 4.80239833 -19.73556904 4.80239833 -12.25 -0.4375 C-7.91419652 -1.84025995 -4.2474362 -1.52907703 0 0 Z " fill="#FBFBFB" transform="translate(489.125,267.125)"/>
<path d="M0 0 C0.50692692 1.5811292 1.00526443 3.16501383 1.5 4.75 C1.7784375 5.63171875 2.056875 6.5134375 2.34375 7.421875 C3 10 3 10 3 14 C7.73927068 11.5777061 11.26195667 8.8626377 15.1875 5.25 C20.25831097 1.00921174 23.7154283 -0.04721496 30.26953125 0.50390625 C38.01611758 1.911369 42.13684395 5.54737065 47.125 11.5625 C51.2533017 19.13105312 53.26015596 28.40545316 52 37 C48.8347382 47.71181819 40.91718555 57.12010556 31.2421875 62.546875 C24.28499504 65.78024382 17.65204081 67.28605728 10 66 C8.02 65.01 6.04 64.02 4 63 C4.33 70.26 4.66 77.52 5 85 C9.95 86.65 14.9 88.3 20 90 C19.67 91.65 19.34 93.3 19 95 C6.13 95 -6.74 95 -20 95 C-18.86967294 89.34836472 -18.86967294 89.34836472 -15.5625 86.6875 C-14.94503906 86.17574219 -14.32757812 85.66398438 -13.69140625 85.13671875 C-12 84 -12 84 -10 84 C-10 62.55 -10 41.1 -10 19 C-12.475 18.01 -12.475 18.01 -15 17 C-17.8125 15.6875 -17.8125 15.6875 -20 14 C-20.13671875 11.39453125 -20.13671875 11.39453125 -20 9 C-2 0 -2 0 0 0 Z " fill="#F9F9F9" transform="translate(780,450)"/>
<path d="M0 0 C1.29804565 0.00592163 1.29804565 0.00592163 2.62231445 0.01196289 C9.22445737 0.15727205 21.49340412 0.49340412 26.4375 5.4375 C26.52463831 7.14522358 26.54450007 8.85648649 26.53515625 10.56640625 C26.53032227 12.11811523 26.53032227 12.11811523 26.52539062 13.70117188 C26.51282227 15.3340918 26.51282227 15.3340918 26.5 17 C26.49548828 18.09248047 26.49097656 19.18496094 26.48632812 20.31054688 C26.47449826 23.01958495 26.45801543 25.72851599 26.4375 28.4375 C24.0324707 28.54736328 24.0324707 28.54736328 21.4375 28.4375 C19.91796875 26.6796875 19.91796875 26.6796875 18.625 24.3125 C14.43345722 17.47026436 9.21007054 13.5164285 1.4375 11.4375 C-10.41342128 10.27698368 -10.41342128 10.27698368 -20.9609375 14.89453125 C-21.75371094 15.65830078 -21.75371094 15.65830078 -22.5625 16.4375 C-23.38621094 17.21673828 -23.38621094 17.21673828 -24.2265625 18.01171875 C-33.33231597 27.6333154 -33.98779641 38.83697739 -33.65576172 51.39941406 C-33.17670506 61.86843225 -29.25032241 73.07386287 -21.5625 80.4375 C-13.96368053 85.72510583 -6.74595226 87.85323002 2.4375 86.4375 C9.5754326 84.74431599 15.25642665 80.74644909 21.06030273 76.43579102 C25.13955492 73.4375 25.13955492 73.4375 28.4375 73.4375 C30.4375 76.4375 30.4375 76.4375 30.4375 79.4375 C28.3828125 81.19921875 28.3828125 81.19921875 25.5625 83.125 C20.7848423 86.44725297 16.32060825 89.96625803 11.921875 93.7734375 C3.67651518 99.29627285 -8.05587167 98.3383297 -17.5625 97.4375 C-28.07695331 95.23630347 -36.04446397 89.53493421 -42.40625 80.94921875 C-45.71504411 75.73462411 -47.95330696 70.38804117 -49.5625 64.4375 C-49.73378418 63.81738037 -49.90506836 63.19726074 -50.08154297 62.55834961 C-53.04718692 49.48091355 -50.08299002 37.15505162 -43.4375 25.875 C-33.47693998 11.05047224 -18.28876729 -0.21549721 0 0 Z " fill="#F7F7F7" transform="translate(638.5625,419.5625)"/>
<path d="M0 0 C0.76417236 0.00942627 1.52834473 0.01885254 2.31567383 0.02856445 C9.43864557 0.21984143 13.97081937 1.59212941 20.0625 5.5 C25.6596772 11.48767793 26.19448745 18.8918448 26.04296875 26.78515625 C26.03872391 27.63806747 26.03447906 28.4909787 26.03010559 29.36973572 C26.0134863 32.0593295 25.97586775 34.74813769 25.9375 37.4375 C25.92243143 39.2753797 25.90874686 41.11327131 25.89648438 42.95117188 C25.86363805 47.42607796 25.81197498 51.9004064 25.75 56.375 C26.69101562 56.51808594 27.63203125 56.66117187 28.6015625 56.80859375 C31.41424051 57.31459662 33.30315717 57.96335991 35.75 59.375 C35.09 61.025 34.43 62.675 33.75 64.375 C26.16 64.375 18.57 64.375 10.75 64.375 C10.255 59.92 10.255 59.92 9.75 55.375 C8.95078125 56.096875 8.1515625 56.81875 7.328125 57.5625 C-2.57503563 66.0893355 -2.57503563 66.0893355 -9.6875 66.1875 C-15.82662272 65.59782111 -19.95821212 64.03580149 -24.0625 59.375 C-27.28483856 54.95579283 -27.710753 51.34221699 -27.6640625 46.01171875 C-26.79291383 40.46430975 -22.97391453 37.00115503 -19.03710938 33.28759766 C-15.66711125 30.97500434 -13.90337748 30.90763739 -9.85546875 30.984375 C-8.65341797 30.99726563 -7.45136719 31.01015625 -6.21289062 31.0234375 C-4.96701172 31.05695313 -3.72113281 31.09046875 -2.4375 31.125 C-1.17228516 31.14304687 0.09292969 31.16109375 1.39648438 31.1796875 C4.51509335 31.22676084 7.63215973 31.29250906 10.75 31.375 C10.63506243 29.47853002 10.50760358 27.58281668 10.375 25.6875 C10.27058594 24.10388672 10.27058594 24.10388672 10.1640625 22.48828125 C9.61518936 18.36137661 8.87422651 15.39383028 5.75 12.5625 C0.08626376 10.3206044 -5.28316718 10.71938906 -11 12.625 C-14.31994486 14.32851701 -14.31994486 14.32851701 -17.4375 16.625 C-20.25 18.375 -20.25 18.375 -22.625 18.125 C-23.16125 17.8775 -23.6975 17.63 -24.25 17.375 C-24.58 16.055 -24.91 14.735 -25.25 13.375 C-23.16689914 11.77053069 -21.08352773 10.16641482 -19 8.5625 C-18.12021484 7.88477539 -18.12021484 7.88477539 -17.22265625 7.19335938 C-16.07469101 6.3098131 -14.92272523 5.43143754 -13.76660156 4.55859375 C-12.13852961 3.32628798 -12.13852961 3.32628798 -10.34375 1.57421875 C-7.05920897 -0.30703889 -3.68033722 -0.06880994 0 0 Z " fill="#F3F3F3" transform="translate(441.25,450.625)"/>
<path d="M0 0 C1.23169922 -0.0299707 1.23169922 -0.0299707 2.48828125 -0.06054688 C9.37839312 -0.0550872 14.56735757 1.68363862 19.80859375 6.21875 C20.49115234 7.06953125 20.49115234 7.06953125 21.1875 7.9375 C21.66058594 8.5046875 22.13367188 9.071875 22.62109375 9.65625 C24.59321164 12.76796543 24.87503426 15.93904649 24.95532227 19.56347656 C24.9852401 20.76426849 24.9852401 20.76426849 25.01576233 21.98931885 C25.03247482 22.84362488 25.04918732 23.69793091 25.06640625 24.578125 C25.08718735 25.46030701 25.10796844 26.34248901 25.12937927 27.25140381 C25.19464867 30.06335831 25.25365447 32.87540445 25.3125 35.6875 C25.35570673 37.59636356 25.39932171 39.50521793 25.44335938 41.4140625 C25.55030687 46.08844826 25.65163785 50.76292602 25.75 55.4375 C30.205 57.4175 30.205 57.4175 34.75 59.4375 C34.09 61.0875 33.43 62.7375 32.75 64.4375 C25.49 64.4375 18.23 64.4375 10.75 64.4375 C10.75 61.1375 10.75 57.8375 10.75 54.4375 C9.87859375 55.2315625 9.0071875 56.025625 8.109375 56.84375 C-2.6416638 66.22318834 -2.6416638 66.22318834 -9.625 66.375 C-14.70646887 65.83975195 -19.19715261 64.63094842 -23.25 61.4375 C-27.44114521 56.17170218 -28.70431666 52.13867072 -28.25 45.4375 C-26.32951145 39.67603435 -22.50049922 35.40997897 -17.25 32.4375 C-12.38240045 31.59698333 -7.670906 31.77245811 -2.75 32 C-1.450625 32.03158203 -0.15125 32.06316406 1.1875 32.09570312 C4.37735906 32.17779509 7.5624804 32.29258379 10.75 32.4375 C10.61192016 30.51134269 10.46746691 28.58564154 10.3203125 26.66015625 C10.24055176 25.58773682 10.16079102 24.51531738 10.07861328 23.41040039 C9.6727958 19.73904863 9.01510176 17.38213228 6.75 14.4375 C1.60577278 11.35096367 -3.30420043 10.50462455 -9.25 11.4375 C-14.36396314 13.25724966 -18.82800315 16.34210221 -23.25 19.4375 C-24.24 17.7875 -25.23 16.1375 -26.25 14.4375 C-24.16784697 12.66526281 -22.08433081 10.89467274 -20 9.125 C-19.12021484 8.37573242 -19.12021484 8.37573242 -18.22265625 7.61132812 C-17.07562728 6.63828669 -15.92238765 5.67251337 -14.76269531 4.71459961 C-13.15364495 3.39065761 -13.15364495 3.39065761 -11.40625 1.609375 C-7.79201741 -0.35488184 -4.04097817 -0.03424558 0 0 Z " fill="#F9F9F9" transform="translate(995.25,450.5625)"/>
<path d="M0 0 C7.29050474 4.30458076 11.01237041 10.86659777 13.3125 18.8125 C13.77074043 22.66171958 13.625 26.56110016 13.625 30.4375 C-0.565 30.4375 -14.755 30.4375 -29.375 30.4375 C-26.80490006 42.42665284 -26.80490006 42.42665284 -19.6875 50.8125 C-15.33408088 52.94813957 -12.13370385 53.3235508 -7.375 52.4375 C-2.34551338 50.58652755 2.01367935 48.14717625 6 44.5625 C8.625 42.4375 8.625 42.4375 11 42.625 C11.53625 42.893125 12.0725 43.16125 12.625 43.4375 C12.625 47.4375 12.625 47.4375 10.28125 49.8046875 C9.24048831 50.65467923 8.18757152 51.48993534 7.125 52.3125 C6.29198364 52.96677979 6.29198364 52.96677979 5.44213867 53.63427734 C4.33291248 54.50483377 3.22121839 55.372256 2.10693359 56.23632812 C0.48659579 57.50668942 0.48659579 57.50668942 -1.35546875 59.421875 C-5.63944484 63.53919756 -9.95390763 64.04374345 -15.75 64.125 C-23.99935325 63.95582816 -30.25248079 62.26162735 -36.42578125 56.53515625 C-41.38923323 51.18120494 -44.69181643 45.81588253 -45.375 38.4375 C-45.46265625 37.57125 -45.5503125 36.705 -45.640625 35.8125 C-46.19771409 26.08876311 -43.15943448 19.26521102 -37.20703125 11.671875 C-27.8121828 1.43409561 -13.77497118 -5.98570854 0 0 Z " fill="#F7F7F7" transform="translate(730.375,452.5625)"/>
<path d="M0 0 C5.75061661 5.0660194 9.51012275 10.42645731 11 18 C11 21.63 11 25.26 11 29 C-3.19 29 -17.38 29 -32 29 C-29.16878253 42.06933948 -29.16878253 42.06933948 -20.6875 50.375 C-12.30456387 52.32452003 -7.20699253 50.28434118 0 46 C3.05134957 44.06973886 6.04618932 42.07622925 9 40 C9.99 41.65 10.98 43.3 12 45 C9.46197578 47.08780236 6.91893656 49.1694074 4.375 51.25 C3.30572266 52.12978516 3.30572266 52.12978516 2.21484375 53.02734375 C0.15905217 54.70592587 -1.91479408 56.35816271 -4 58 C-5.00160156 58.78890625 -6.00320313 59.5778125 -7.03515625 60.390625 C-10.68039068 62.36932933 -13.76248664 62.61033227 -17.8125 62.5 C-18.51810059 62.48864014 -19.22370117 62.47728027 -19.95068359 62.46557617 C-28.58458814 62.14495635 -34.95469005 59.18270335 -41 53 C-46.79052783 44.45897144 -49.34193731 35.74663811 -47.5703125 25.51953125 C-44.91251612 14.9375642 -37.11425089 6.33442323 -27.890625 0.71484375 C-19.52139469 -3.67428267 -8.18489897 -5.65147786 0 0 Z " fill="#F7F7F7" transform="translate(896,454)"/>
<path d="M0 0 C0.01030746 0.59246521 0.02061493 1.18493042 0.03123474 1.79534912 C0.13938458 7.95970506 0.25397579 14.12391735 0.37231445 20.28808594 C0.41563606 22.58883662 0.45731313 24.88961888 0.49731445 27.19042969 C0.55508395 30.49684161 0.61875949 33.803095 0.68359375 37.109375 C0.70030624 38.13867126 0.71701874 39.16796753 0.73423767 40.22845459 C0.75418289 41.18914856 0.77412811 42.14984253 0.79467773 43.13964844 C0.81799416 44.40539703 0.81799416 44.40539703 0.84178162 45.69671631 C0.99407571 47.91375644 1.38782088 49.86850379 2 52 C10.98272772 53.72528382 16.48822125 52.0078525 24 47 C24.51146198 44.09386566 24.51146198 44.09386566 24.51171875 40.6796875 C24.54716797 39.42285156 24.58261719 38.16601562 24.61914062 36.87109375 C24.64169922 35.55238281 24.66425781 34.23367188 24.6875 32.875 C24.72066529 31.53512241 24.75515422 30.19527689 24.79101562 28.85546875 C24.87373327 25.5703967 24.94280693 22.28559968 25 19 C24.24332031 18.70351563 23.48664063 18.40703125 22.70703125 18.1015625 C19.71843944 16.88542557 16.87143959 15.46910863 14 14 C14.00390625 11.765625 14.00390625 11.765625 15 9 C17.45392077 7.18525796 20.16181798 5.99749754 22.9375 4.75 C23.67935547 4.399375 24.42121094 4.04875 25.18554688 3.6875 C26.55985748 3.03959292 27.93772401 2.39913959 29.32006836 1.76855469 C30.55765506 1.20236911 31.78272864 0.60863568 33 0 C34.98 0 36.96 0 39 0 C39.33 18.48 39.66 36.96 40 56 C44.455 57.98 44.455 57.98 49 60 C48.67 61.65 48.34 63.3 48 65 C40.41 65 32.82 65 25 65 C24.67 61.37 24.34 57.74 24 54 C23.08476562 54.78246094 22.16953125 55.56492187 21.2265625 56.37109375 C20.02613205 57.39333531 18.82560626 58.41546493 17.625 59.4375 C17.02171875 59.95376953 16.4184375 60.47003906 15.796875 61.00195312 C9.67354736 66.20678162 5.93901709 66.62883304 -2 66 C-6.97835229 64.18969008 -10.65039257 61.62559449 -13.10546875 56.84936523 C-14.22756816 53.27512338 -14.16731343 49.9821998 -14.0625 46.28515625 C-14.05356672 44.7793093 -14.04713328 43.27344581 -14.04296875 41.76757812 C-14.02872008 39.41138862 -13.99990975 37.05953498 -13.92822266 34.7043457 C-13.78752434 29.64502457 -13.77914494 24.93249644 -15 20 C-17.50953421 17.56260956 -19.58565134 16.4250374 -22.84765625 15.20092773 C-23.55792969 14.80462158 -24.26820313 14.40831543 -25 14 C-25.30859375 11.35961914 -25.30859375 11.35961914 -25 9 C-21.96762347 7.48066891 -18.92278779 5.98814272 -15.875 4.5 C-15.0190625 4.07074219 -14.163125 3.64148438 -13.28125 3.19921875 C-12.44335938 2.79316406 -11.60546875 2.38710938 -10.7421875 1.96875 C-9.9776123 1.59169922 -9.21303711 1.21464844 -8.42529297 0.82617188 C-5.51634746 -0.16475541 -3.05205512 -0.13890516 0 0 Z " fill="#FBFBFB" transform="translate(271,450)"/>
<path d="M0 0 C11.88 0 23.76 0 36 0 C35 5 35 5 32.97218323 6.411026 C32.15837692 6.84652267 31.34457062 7.28201935 30.50610352 7.73071289 C27.1494181 10.20922546 26.13176178 11.44174299 25.16061401 15.55636597 C24.74368295 20.13606159 24.83030532 24.71555656 24.90234375 29.30859375 C24.89668626 31.00254539 24.88706956 32.69648801 24.87367249 34.39039612 C24.84911858 38.83142026 24.87808844 43.2705195 24.91845703 47.71136475 C24.95015882 52.24969983 24.93090116 56.78779279 24.91601562 61.32617188 C24.89431929 70.21813038 24.93391509 79.10826015 25 88 C35.23 88 45.46 88 56 88 C56.66 86.68 57.32 85.36 58 84 C60.23613291 80.38767061 62.59360525 76.85559671 64.9375 73.3125 C65.57107422 72.33732422 66.20464844 71.36214844 66.85742188 70.35742188 C67.7768457 68.96813477 67.7768457 68.96813477 68.71484375 67.55078125 C69.27292725 66.70169189 69.83101074 65.85260254 70.40600586 64.9777832 C72 63 72 63 75 62 C75.66 62.33 76.32 62.66 77 63 C77 73.56 77 84.12 77 95 C75.35 94.67 73.7 94.34 72 94 C69.57876346 93.88641399 67.15492342 93.82398008 64.73120117 93.79467773 C64.01846039 93.78477814 63.3057196 93.77487854 62.57138062 93.76467896 C60.2286098 93.73323226 57.88581876 93.70837354 55.54296875 93.68359375 C53.9134317 93.66300966 52.28389981 93.64201282 50.65437317 93.62062073 C46.37517492 93.56555024 42.09592968 93.516075 37.81665039 93.46777344 C33.446084 93.41744841 29.07558545 93.36181988 24.70507812 93.30664062 C16.13677619 93.19924293 7.56841732 93.09775749 -1 93 C-0.78086853 90.67323303 -0.78086853 90.67323303 0 88 C2.02781677 86.56590271 2.02781677 86.56590271 4.49389648 85.22827148 C7.7872826 82.79747675 8.85688301 81.58651169 9.83938599 77.56008911 C10.25528909 73.16033635 10.16979193 68.76123064 10.09765625 64.34765625 C10.10331416 62.72096463 10.11293144 61.0942824 10.12632751 59.46763611 C10.1508747 55.2041337 10.12191944 50.94263723 10.08154297 46.67932129 C10.0498338 42.32195286 10.0691003 37.96483619 10.08398438 33.60742188 C10.10567658 25.07104393 10.07080873 16.53610963 10 8 C8.86498047 7.78537109 8.86498047 7.78537109 7.70703125 7.56640625 C4.7077106 6.93884277 1.89104756 6.00850496 -1 5 C-0.67 3.35 -0.34 1.7 0 0 Z " fill="#F8F8F8" transform="translate(157,422)"/>
<path d="M0 0 C0.33 31.02 0.66 62.04 1 94 C3.97 95.32 6.94 96.64 10 98 C9.34 99.65 8.68 101.3 8 103 C-2.89 103 -13.78 103 -25 103 C-23.86967294 97.34836472 -23.86967294 97.34836472 -20.5625 94.6875 C-19.94503906 94.17574219 -19.32757812 93.66398437 -18.69140625 93.13671875 C-17 92 -17 92 -15 92 C-14.92205048 82.47210506 -14.89273887 72.94564359 -14.92484188 63.41747952 C-14.9382367 58.992595 -14.93512762 54.56902574 -14.89379883 50.14428711 C-14.85449749 45.87071019 -14.85920568 41.59920326 -14.89392281 37.32560921 C-14.89950479 35.69858645 -14.88945473 34.07142972 -14.86323357 32.44460869 C-14.46342035 23.36746789 -14.46342035 23.36746789 -18.07693481 15.40139771 C-20.31560992 13.64414454 -22.44463591 12.24199644 -25 11 C-24.70727539 8.61254883 -24.70727539 8.61254883 -24 6 C-21.41048621 4.59391536 -19.19130882 3.62354802 -16.4375 2.6875 C-15.74591797 2.42388672 -15.05433594 2.16027344 -14.34179688 1.88867188 C-9.03162779 -0.0166544 -6.20241301 0 0 0 Z " fill="#F3F3F3" transform="translate(1063,412)"/>
<path d="M0 0 C0.33 31.02 0.66 62.04 1 94 C3.97 95.32 6.94 96.64 10 98 C9.34 99.65 8.68 101.3 8 103 C-2.89 103 -13.78 103 -25 103 C-24 98 -24 98 -21.97685242 96.55725098 C-21.16424454 96.11361206 -20.35163666 95.66997314 -19.5144043 95.21289062 C-16.25207318 92.80419737 -15.14960047 91.58375856 -14.13076782 87.6081543 C-13.67450278 83.27670138 -13.72023562 78.94357397 -13.76953125 74.59375 C-13.76091784 72.98383085 -13.74978338 71.37392341 -13.73625183 69.76403809 C-13.71851724 66.39774069 -13.73364644 63.03359419 -13.77172852 59.66748047 C-13.81742687 55.36501629 -13.77749503 51.0683295 -13.71237659 46.76628876 C-13.67223252 43.44406455 -13.6795591 40.12320601 -13.70078087 36.80085754 C-13.70491846 35.21569052 -13.69407668 33.63040743 -13.66761208 32.04545593 C-13.32800611 23.079579 -13.32800611 23.079579 -17.31283569 15.43041992 C-19.8118283 13.6646683 -22.20894329 12.24365961 -25 11 C-24.70727539 8.61254883 -24.70727539 8.61254883 -24 6 C-21.41048621 4.59391536 -19.19130882 3.62354802 -16.4375 2.6875 C-15.74591797 2.42388672 -15.05433594 2.16027344 -14.34179688 1.88867188 C-9.03162779 -0.0166544 -6.20241301 0 0 0 Z " fill="#F9F9F9" transform="translate(354,412)"/>
<path d="M0 0 C0 6.27 0 12.54 0 19 C-1.65 19 -3.3 19 -5 19 C-6.58984375 17.20703125 -6.58984375 17.20703125 -7.9375 14.8125 C-11.07000491 9.68584892 -14.11877325 5.96040892 -20 4 C-23.91685697 3.64392209 -26.15793399 3.45265709 -29.5 5.625 C-31.28539507 7.94689108 -31.28539507 7.94689108 -30.8515625 10.9375 C-29.83967314 14.57658834 -28.99437435 15.34689192 -25.875 17.375 C-24.97910156 17.96152344 -24.08320313 18.54804688 -23.16015625 19.15234375 C-20.24391151 20.85739166 -17.29729402 22.40893253 -14.28588867 23.93432617 C-1.565811 30.40058859 -1.565811 30.40058859 2 37 C2.92717252 41.80443943 2.03033407 45.09053784 -0.6015625 49.234375 C-5.35519869 55.23617265 -11.58692885 60.42707497 -19.33984375 61.43359375 C-29.02466428 61.4441093 -36.74893813 59.81937124 -46 57 C-46 50.73 -46 44.46 -46 38 C-41 38 -41 38 -39.41015625 39.57421875 C-38.96542969 40.27160156 -38.52070313 40.96898437 -38.0625 41.6875 C-34.58961094 46.73167048 -30.74415885 50.57634933 -25 53 C-20.77382564 53.57291448 -17.16002963 53.67904173 -13.4375 51.5 C-11.66733903 49.97641404 -11.66733903 49.97641404 -11.8125 46.9375 C-12.23596202 44.08771507 -12.81009426 43.16350958 -15.0234375 41.2578125 C-18.52786067 39.02772503 -22.12101243 37.01148466 -25.77783203 35.04296875 C-41.25622291 26.70365861 -41.25622291 26.70365861 -45 20 C-45.9167786 15.24942001 -45.06559966 11.94375465 -42.47265625 7.8359375 C-30.51268716 -7.07436879 -16.76197443 -6.02677732 0 0 Z " fill="#F6F6F6" transform="translate(536,455)"/>
<path d="M0 0 C0.33 31.02 0.66 62.04 1 94 C4.3 95.32 7.6 96.64 11 98 C10.34 99.65 9.68 101.3 9 103 C-2.22 103 -13.44 103 -25 103 C-24 98 -24 98 -21.97561646 96.55725098 C-21.16269135 96.11361206 -20.34976624 95.66997314 -19.51220703 95.21289062 C-16.24900045 92.80358082 -15.14921238 91.5868802 -14.13763428 87.6081543 C-13.69096263 83.27602362 -13.74693865 78.94313759 -13.8046875 74.59375 C-13.79861696 72.98383398 -13.7898757 71.37392603 -13.77859497 69.76403809 C-13.76536103 66.39771617 -13.78448683 63.03355057 -13.82666016 59.66748047 C-13.87795247 55.36533772 -13.84840699 51.06824632 -13.79450798 46.76628876 C-13.76188632 43.44409538 -13.77237875 40.12308787 -13.79565811 36.80085754 C-13.80163523 35.21571749 -13.79438707 33.63046755 -13.77334213 32.04545593 C-13.45296907 23.17977313 -13.45296907 23.17977313 -17.08355713 15.43041992 C-19.31911836 13.67527294 -21.45716016 12.2596794 -24 11 C-23.70947266 8.61254883 -23.70947266 8.61254883 -23 6 C-20.39055314 4.59795454 -18.14584269 3.62346201 -15.375 2.6875 C-14.67503906 2.42388672 -13.97507812 2.16027344 -13.25390625 1.88867188 C-8.32990135 0.1300987 -5.65839787 0 0 0 Z " fill="#FCFCFC" transform="translate(945,412)"/>
<path d="M0 0 C3.78817743 0.1040114 7.57706546 0.14832574 11.36627197 0.19836426 C18.74445557 0.30424852 26.11921731 0.47390524 33.49517822 0.68664551 C30.5530328 3.0714699 27.77682288 5.23575597 24.41314697 6.98352051 C23.65453369 7.38055176 22.89592041 7.77758301 22.11431885 8.18664551 C21.31187744 8.59914551 20.50943604 9.01164551 19.68267822 9.43664551 C18.84027588 9.87492676 17.99787354 10.31320801 17.12994385 10.76477051 C11.30513974 13.78471416 5.44498429 16.73097935 -0.43475342 19.64221191 C-5.7518508 22.28387778 -11.00663405 25.03596263 -16.25482178 27.81164551 C-18.61722647 29.05670304 -20.97992907 30.30119343 -23.3427124 31.54553223 C-24.71772644 32.27123408 -26.09156311 32.99917448 -27.46380615 33.73010254 C-29.13921483 34.62078602 -30.82173971 35.49804844 -32.50482178 36.37414551 C-33.41232178 36.8523877 -34.31982178 37.33062988 -35.25482178 37.82336426 C-37.50482178 38.68664551 -37.50482178 38.68664551 -40.50482178 37.68664551 C-41.73162842 35.89245605 -41.73162842 35.89245605 -42.91497803 33.57336426 C-43.3474585 32.73740723 -43.77993896 31.9014502 -44.2255249 31.04016113 C-44.88971436 29.7204834 -44.88971436 29.7204834 -45.56732178 28.37414551 C-46.01398193 27.50596191 -46.46064209 26.63777832 -46.9208374 25.74328613 C-48.12592846 23.39615064 -49.31951017 21.04382025 -50.50482178 18.68664551 C-50.90241699 18.01609131 -51.30001221 17.34553711 -51.70965576 16.65466309 C-52.71788423 14.15932085 -52.43117234 13.18538654 -51.50482178 10.68664551 C-37.9212295 -2.39998607 -17.31114538 -0.52709838 0 0 Z " fill="#FBFBFB" transform="translate(709.5048217773438,576.3133544921875)"/>
<path d="M0 0 C8.24220832 -0.25804277 16.4826548 -0.45187054 24.72793865 -0.56993389 C28.55928102 -0.62668145 32.38780781 -0.70324447 36.2175293 -0.82983398 C55.48042584 -1.45035675 70.70794627 -0.76483579 87 11 C85.83019483 13.99244231 84.60690261 16.90864368 83.16015625 19.77734375 C82.81919922 20.45603516 82.47824219 21.13472656 82.12695312 21.83398438 C81.77568359 22.52814453 81.42441406 23.22230469 81.0625 23.9375 C80.71509766 24.62779297 80.36769531 25.31808594 80.00976562 26.02929688 C79.32905919 27.38173621 78.64760573 28.73379986 77.96533203 30.08544922 C76.63683101 32.72027598 75.31798406 35.35990026 74 38 C70.4790844 37.421945 67.71232985 36.51962246 64.5703125 34.83984375 C63.70792969 34.38383789 62.84554687 33.92783203 61.95703125 33.45800781 C61.02246094 32.95624023 60.08789062 32.45447266 59.125 31.9375 C57.06560145 30.84671687 55.00567615 29.75692782 52.9453125 28.66796875 C51.83446289 28.07935059 50.72361328 27.49073242 49.57910156 26.88427734 C42.44069775 23.11534089 35.249256 19.44714942 28.06939697 15.75802612 C18.66618522 10.92454427 9.3165339 5.9985517 0 1 C0 0.67 0 0.34 0 0 Z " fill="#FBFBFB" transform="translate(525,577)"/>
<path d="M0 0 C17.49 0 34.98 0 53 0 C48.04832519 9.28439028 43.08962489 18.45098968 37.75 27.5 C36.55704657 29.53110606 35.36433181 31.56235233 34.171875 33.59375 C33.62466797 34.52445313 33.07746094 35.45515625 32.51367188 36.4140625 C30.65125165 39.59579718 28.81941146 42.79351247 27 46 C22.7387378 42.3700359 20.56782757 37.86903735 18 33 C13.48819007 24.59505382 8.71421419 16.39398088 3.70898438 8.2734375 C3.22365234 7.479375 2.73832031 6.6853125 2.23828125 5.8671875 C1.80555908 5.16706543 1.37283691 4.46694336 0.92700195 3.74560547 C0 2 0 2 0 0 Z " fill="#060606" transform="translate(608,758)"/>
<path d="M0 0 C4.96195411 2.86266583 7.38123684 6.34078593 9.30078125 11.71875 C10.22134551 16.03871635 10.47478223 20.21611752 10.5625 24.625 C10.58940918 25.42437988 10.61631836 26.22375977 10.64404297 27.04736328 C10.60585826 33.01772802 9.05794632 37.52333909 5 42 C0.23465403 44.85341385 -4.59463891 44.49496766 -10 44 C-15.29549457 42.23483514 -17.75721478 39.35459729 -21 35 C-23.0494688 30.9010624 -22.49255321 25.81833971 -22.625 21.3125 C-22.69589844 20.23548828 -22.76679687 19.15847656 -22.83984375 18.04882812 C-23.02192234 10.2338233 -23.02192234 10.2338233 -20.12792969 6.73974609 C-14.21904069 2.01091934 -7.76442304 -1.41864704 0 0 Z " fill="#050505" transform="translate(806,462)"/>
<path d="M0 0 C9.57 0 19.14 0 29 0 C27.89665587 5.51672065 27.51879302 5.87554222 23.3125 9.0625 C22.3328125 9.825625 21.353125 10.58875 20.34375 11.375 C19.54324219 11.99568359 19.54324219 11.99568359 18.7265625 12.62890625 C15.5115671 15.18199083 12.41907252 17.87946071 9.3125 20.5625 C8.68835205 21.0994751 8.0642041 21.6364502 7.42114258 22.18969727 C5.94638117 23.45858206 4.47303138 24.72910724 3 26 C3.60352741 29.12201937 4.58174626 31.09475728 6.51171875 33.609375 C7.02283203 34.28226562 7.53394531 34.95515625 8.06054688 35.6484375 C8.59744141 36.34195313 9.13433594 37.03546875 9.6875 37.75 C10.73307292 39.11979167 11.77864583 40.48958333 12.82421875 41.859375 C13.34983398 42.53742188 13.87544922 43.21546875 14.41699219 43.9140625 C15.4878529 45.32514115 16.5297463 46.75859939 17.54394531 48.2109375 C20.42331857 52.29515489 22.4516063 54.90322366 27.375 56.5 C28.24898438 56.7990625 29.12296875 57.098125 30.0234375 57.40625 C31.00183594 57.70015625 31.00183594 57.70015625 32 58 C31.34 59.65 30.68 61.3 30 63 C23.06456173 64.15082439 15.82363764 65.07736251 9 63 C3.64629507 59.02683321 0.51983325 52.99454397 -2.67919922 47.27001953 C-4.49332644 44.15213507 -6.63424894 41.4499606 -8.875 38.625 C-11.99619372 34.64453028 -11.99619372 34.64453028 -12.01171875 32.015625 C-10.52615093 29.05596094 -8.41250268 27.31062823 -5.9375 25.125 C-4.45443359 23.81402344 -4.45443359 23.81402344 -2.94140625 22.4765625 C0.12830627 19.89197055 3.25559908 17.46137534 6.5390625 15.15625 C8.15335882 14.04645668 8.15335882 14.04645668 9 12 C8.29875 11.773125 7.5975 11.54625 6.875 11.3125 C3.30656387 9.68343133 0.93485489 7.59359269 -2 5 C-1.34 3.35 -0.68 1.7 0 0 Z " fill="#F7F7F7" transform="translate(373,452)"/>
<path d="M0 0 C9.24 0 18.48 0 28 0 C26.93056383 5.34718084 26.52266419 5.93022293 22.625 9.25 C21.27921875 10.40628906 21.27921875 10.40628906 19.90625 11.5859375 C18.9471875 12.38257813 17.988125 13.17921875 17 14 C15.53046875 15.22589844 15.53046875 15.22589844 14.03125 16.4765625 C10.08142773 19.73622765 6.11806877 22.95454449 2 26 C3.5332508 30.75218084 6.20398605 34.06882488 9.3125 37.875 C20 51.10714286 20 51.10714286 20 54 C20.71027344 54.18175781 21.42054687 54.36351562 22.15234375 54.55078125 C23.53099609 54.92783203 23.53099609 54.92783203 24.9375 55.3125 C25.85402344 55.55613281 26.77054688 55.79976563 27.71484375 56.05078125 C28.46894531 56.36402344 29.22304687 56.67726563 30 57 C30.33 57.99 30.66 58.98 31 60 C29 63 29 63 27.12744141 63.59448242 C12.30344246 65.29442394 12.30344246 65.29442394 7.04492188 61.64208984 C3.45839877 57.97348814 0.88241157 53.65722319 -1.67089844 49.23339844 C-3.80008311 45.65555468 -6.28552869 42.35108524 -8.75 39 C-9.58081393 37.83524666 -10.40922037 36.66876942 -11.234375 35.5 C-11.81703125 34.675 -12.3996875 33.85 -13 33 C-11.42751016 28.69847941 -8.12657391 26.30164289 -4.6875 23.5 C-4.11837891 23.02691406 -3.54925781 22.55382812 -2.96289062 22.06640625 C-0.37049582 19.91748656 2.23677659 17.81996104 4.91796875 15.78125 C5.60503906 15.1934375 6.29210938 14.605625 7 14 C7 13.34 7 12.68 7 12 C4.98391833 10.18759253 4.98391833 10.18759253 2.5 8.375 C1.6646875 7.74335938 0.829375 7.11171875 -0.03125 6.4609375 C-0.6809375 5.97882813 -1.330625 5.49671875 -2 5 C-1.34 3.35 -0.68 1.7 0 0 Z " fill="#F8F8F8" transform="translate(1082,452)"/>
<path d="M0 0 C7.26 0 14.52 0 22 0 C22 4.29 22 8.58 22 13 C9.69230769 20.38461538 9.69230769 20.38461538 3 19 C-0.2559707 16.35452381 -1.69458081 14.86144959 -2.37109375 10.73828125 C-2.49634247 6.2809005 -2.05902049 4.11804097 0 0 Z " fill="#0E0E0E" transform="translate(984,487)"/>
<path d="M0 0 C4.64866056 1.61692541 6.18004286 4.5699663 8.30078125 8.76953125 C9 11 9 11 9 17 C0.09 17 -8.82 17 -18 17 C-18 9.09144543 -18 9.09144543 -15.6875 5.6875 C-15.25824219 5.03136719 -14.82898438 4.37523437 -14.38671875 3.69921875 C-10.44229799 -1.13408557 -5.70710846 -0.55790644 0 0 Z " fill="#050505" transform="translate(882,461)"/>
<path d="M0 0 C5.09838634 3.29270784 6.68366777 8.28519179 8 14 C8 14.99 8 15.98 8 17 C-0.91 17 -9.82 17 -19 17 C-19 7.77777778 -19 7.77777778 -15 3 C-10.49800202 -1.09183764 -5.80825055 -0.88892988 0 0 Z " fill="#050505" transform="translate(720,461)"/>
<path d="M0 0 C0.86931152 0.01047363 1.73862305 0.02094727 2.63427734 0.03173828 C3.57529297 0.03818359 4.51630859 0.04462891 5.48583984 0.05126953 C6.47068359 0.06802734 7.45552734 0.08478516 8.47021484 0.10205078 C9.46279297 0.11107422 10.45537109 0.12009766 11.47802734 0.12939453 C13.93399618 0.15300962 16.38948653 0.18594279 18.84521484 0.22705078 C19.3157445 4.32457989 19.55140057 8.14922643 18.84521484 12.22705078 C15.16209715 16.34802163 9.79475139 18.04982019 4.40771484 18.53955078 C0.84521484 18.22705078 0.84521484 18.22705078 -1.52978516 16.35205078 C-4.0043677 13.11605823 -4.3130051 11.25598596 -4.34228516 7.22705078 C-4.35646484 6.34017578 -4.37064453 5.45330078 -4.38525391 4.53955078 C-4.0713031 1.38940027 -3.18264305 0.33535668 0 0 Z " fill="#040404" transform="translate(433.15478515625,487.77294921875)"/>
<path d="M0 0 C1.32 1.32 2.64 2.64 4 4 C2.68 5.32 1.36 6.64 0 8 C-0.99 7.34 -1.98 6.68 -3 6 C-3 4.68 -3 3.36 -3 2 C-2.01 1.34 -1.02 0.68 0 0 Z " fill="#EAEAEA" transform="translate(904,494)"/>
<path d="M0 0 C0.66 0.33 1.32 0.66 2 1 C0.70700306 3.88437779 -0.65941363 5.87219421 -3 8 C-4.32 7.34 -5.64 6.68 -7 6 C-4.69 4.02 -2.38 2.04 0 0 Z " fill="#EBEBEB" transform="translate(982,454)"/>
</svg>
