<?xml version="1.0" encoding="UTF-8"?>
<svg version="1.1" xmlns="http://www.w3.org/2000/svg" width="564" height="603">
<path d="M0 0 C1.375 2.0625 1.375 2.0625 2 4 C2.66 4 3.32 4 4 4 C5.21411133 5.67382812 5.21411133 5.67382812 6.58203125 8.03125 C7.09556152 8.89733887 7.6090918 9.76342773 8.13818359 10.65576172 C8.69070801 11.59436035 9.24323242 12.53295898 9.8125 13.5 C14.11716476 20.63652182 18.58145124 27.43135779 23.875 33.875 C24.38522705 34.49697266 24.8954541 35.11894531 25.42114258 35.75976562 C28.51387745 39.43961459 31.80742864 42.83669253 35.23535156 46.20336914 C36.99199937 47.99185437 38.61795168 49.844968 40.2421875 51.75390625 C43.97512833 56.08058224 48.04446139 60.03321818 52.13427734 64.01782227 C62.39649984 74.01688375 71.84300054 84.17450871 80 96 C80.4134668 96.57943359 80.82693359 97.15886719 81.25292969 97.75585938 C88.92796711 108.53938002 97.60943606 122.61582212 99 136 C99.7425 135.7525 100.485 135.505 101.25 135.25 C104 135 104 135 106.046875 136.66162109 C109.44714311 140.73259209 110.49167292 145.60871417 112 150.625 C112.34740234 151.76114746 112.69480469 152.89729492 113.05273438 154.06787109 C116.59918737 166.18602778 118.47723019 178.48667001 120 191 C120.75410156 190.5153125 121.50820313 190.030625 122.28515625 189.53125 C125.86026811 187.51478403 127.94595276 187.43101091 132 188 C139.03905852 191.8010916 140.77040402 198.67079619 143 206 C144.86374149 213.08967264 146.17686174 219.64627519 146 227 C147.051875 226.773125 148.10375 226.54625 149.1875 226.3125 C153.51978938 225.95739431 154.71962462 226.25157739 158 229 C174.76577631 251.88980238 173.87173469 286.56625504 169.76000977 313.2043457 C168.31177908 321.88702786 166.46352513 329.87830637 163 338 C162.62987793 338.89283691 162.25975586 339.78567383 161.87841797 340.70556641 C156.30222292 354.01697261 150.23758137 365.89587608 141 377 C140.08285597 378.13633363 139.16618964 379.27305298 138.25 380.41015625 C135.58091666 383.68091029 132.81922767 386.85819452 130 390 C129.17371094 390.92296875 128.34742188 391.8459375 127.49609375 392.796875 C119.60129099 401.13764371 110.4781357 407.5836395 101 414 C100.39236816 414.42023438 99.78473633 414.84046875 99.15869141 415.2734375 C80.41724164 428.09398736 56.51173003 436.86536727 34.0625 439.75 C33.18271484 439.87503906 32.30292969 440.00007813 31.39648438 440.12890625 C26.54743885 440.78898575 21.90173156 441.0194159 17 441 C17.00138269 441.83653893 17.00138269 441.83653893 17.00279331 442.68997765 C17.02493337 456.29615989 17.04138884 469.90233895 17.05181217 483.50853539 C17.05702288 490.08854216 17.06408757 496.66853589 17.07543945 503.24853516 C17.08633278 509.60276034 17.09229049 515.95697301 17.09487724 522.31120682 C17.09671989 524.73118919 17.10031807 527.1511709 17.10573006 529.57114792 C17.11302605 532.96981009 17.11398734 536.36842105 17.11352539 539.76708984 C17.11712067 540.75971832 17.12071594 541.7523468 17.12442017 542.77505493 C17.0954644 562.56043681 17.0954644 562.56043681 9.546875 570.53515625 C5.27601992 574.39016492 1.24796492 575.75022612 -4.375 576.375 C-12.09839474 575.57602813 -16.61204661 571.87939664 -21.5546875 566.09765625 C-24.26032166 562.17083045 -25.25060862 558.6607487 -25.24050903 553.91899109 C-25.24463303 552.41937584 -25.24463303 552.41937584 -25.24884033 550.88946533 C-25.24164978 549.80405457 -25.23445923 548.7186438 -25.22705078 547.6003418 C-25.22734283 546.44869034 -25.22763489 545.29703888 -25.22793579 544.11048889 C-25.22654327 540.30665535 -25.2109854 536.50301805 -25.1953125 532.69921875 C-25.1915821 530.06077685 -25.18873526 527.42233356 -25.18673706 524.78388977 C-25.18052692 518.55081227 -25.16412243 512.31780513 -25.14403808 506.08475858 C-25.12166456 498.98684322 -25.110682 491.88892446 -25.10064721 484.7909826 C-25.07975577 470.19395215 -25.04458886 455.59697706 -25 441 C-26.4082605 440.90368286 -26.4082605 440.90368286 -27.8449707 440.80541992 C-29.08851318 440.71881104 -30.33205566 440.63220215 -31.61328125 440.54296875 C-33.45466675 440.41571411 -33.45466675 440.41571411 -35.33325195 440.28588867 C-61.8561027 438.2179575 -89.35265577 427.29795167 -111 412 C-111.55075195 411.61457031 -112.10150391 411.22914063 -112.66894531 410.83203125 C-119.9024388 405.72193218 -126.56941609 400.08040359 -133 394 C-133.76054687 393.29230469 -134.52109375 392.58460938 -135.3046875 391.85546875 C-157.5900214 370.45692149 -174.06850282 338.60277408 -178 308 C-178.19529297 306.62908203 -178.19529297 306.62908203 -178.39453125 305.23046875 C-178.71925389 302.48115043 -178.88300474 299.76659374 -179 297 C-179.04882324 295.97422852 -179.04882324 295.97422852 -179.09863281 294.92773438 C-179.96693857 274.10593773 -179.59641258 246.57841247 -165.75 229.625 C-161.64975882 225.71113342 -159.58744723 225.89652876 -154 226 C-154.02936646 225.10317505 -154.02936646 225.10317505 -154.05932617 224.18823242 C-154.17790094 217.71179138 -153.51407843 211.66894592 -152.3125 205.3125 C-152.13533447 204.35569336 -151.95816895 203.39888672 -151.77563477 202.41308594 C-150.4202403 195.43043118 -148.56008158 188.83877986 -146.1328125 182.16015625 C-145.17940424 179.50047597 -144.47091016 176.92778455 -143.8125 174.1875 C-142.31324087 169.06072309 -139.756542 164.52929417 -137.1875 159.875 C-136.56548706 158.7461438 -136.56548706 158.7461438 -135.9309082 157.59448242 C-131.78993008 150.2915357 -127.60257774 143.03402084 -120 139 C-118.906875 138.814375 -117.81375 138.62875 -116.6875 138.4375 C-106.73917088 134.5593378 -102.65815021 123.52645807 -98.58862305 114.41455078 C-94.49492807 105.47021013 -88.95410161 97.7881014 -83 90 C-82.2884375 89.05640625 -81.576875 88.1128125 -80.84375 87.140625 C-72.79475709 76.78249478 -63.56910705 67.51479085 -54.27612305 58.29077148 C-49.97866037 54.01317636 -45.88791436 49.65491787 -42 45 C-40.76056641 43.576875 -40.76056641 43.576875 -39.49609375 42.125 C-30.17652654 31.38519855 -22.03824631 20.07091345 -14.7890625 7.83984375 C-10.67003317 1.30155921 -8.10330531 -2.24133977 0 0 Z " fill="#060504" transform="translate(270,23)"/>
<path d="M0 0 C1.79361559 2.69042339 3.25250065 5.41417706 4.71484375 8.29174805 C11.05771738 20.69110666 18.70467308 32.19772138 26.515625 43.7109375 C45.83311907 72.47648737 53.57063645 105.33271587 47.61035156 139.75 C43.03527795 162.77169237 33.74707552 183.23170765 22.92044067 203.8863678 C22.20316605 205.25516399 21.48692404 206.62450177 20.771698 207.99436951 C19.03757368 211.3156372 17.29321973 214.63009702 15.51953125 217.93041992 C9.86888605 228.56893509 6.27445448 239.41517404 3 251 C1.08465234 248.12697851 0.15968751 245.57436267 -0.85083008 242.30224609 C-6.27813676 224.74495551 -14.70564895 208.24687136 -24.44580078 192.69091797 C-28.13780241 186.74561494 -30.99832761 180.78135653 -33.5 174.25 C-33.88164307 173.26136963 -34.26328613 172.27273926 -34.65649414 171.25415039 C-48.31768705 134.99778722 -51.0743577 96.49633086 -34.82128906 60.44970703 C-28.44688663 47.0283231 -20.54687329 34.73294133 -12.25317383 22.43847656 C-7.45337994 15.28193955 -3.10975096 8.05967567 0 0 Z " fill="#F7D448" transform="translate(263,124)"/>
<path d="M0 0 C1.16983592 3.42923947 0.81794535 5.52741236 -0.22265625 8.96484375 C-0.51092285 9.92366455 -0.79918945 10.88248535 -1.09619141 11.87036133 C-1.57451416 13.38859497 -1.57451416 13.38859497 -2.0625 14.9375 C-2.54468994 16.49150513 -2.54468994 16.49150513 -3.03662109 18.0769043 C-5.4673674 25.72794484 -8.31472037 32.86092814 -12 40 C-12.36182373 40.74628662 -12.72364746 41.49257324 -13.09643555 42.26147461 C-15.92419331 48.06393743 -19.06145334 53.51857485 -22.5625 58.9375 C-23.07844727 59.74743408 -23.59439453 60.55736816 -24.12597656 61.3918457 C-26.78852225 65.56991368 -29.47427923 69.73259201 -32.16796875 73.890625 C-50.54628439 102.39494149 -61.45151981 131.19975901 -61.4375 165.4375 C-61.43823517 166.22480499 -61.43897034 167.01210999 -61.43972778 167.82327271 C-61.40656071 181.41301021 -59.97134753 193.9467368 -56 207 C-55.7323584 207.90234375 -55.4647168 208.8046875 -55.18896484 209.734375 C-47.1411795 236.4377471 -34.48022914 262.14314373 -19.86376953 285.84228516 C-18.84973053 287.52714329 -17.91836657 289.26114265 -17 291 C-17.33 291.66 -17.66 292.32 -18 293 C-18.65484375 292.23816406 -19.3096875 291.47632813 -19.984375 290.69140625 C-31.0938824 278.0042662 -43.35825404 270.45298132 -58.31640625 262.89453125 C-82.81821834 250.46228649 -98.09807678 233.05108173 -107.4375 207.0625 C-107.68459717 206.37712158 -107.93169434 205.69174316 -108.1862793 204.9855957 C-118.03788569 176.02784359 -109.93562962 139.65878688 -97 113 C-95.95475965 111.24754427 -94.87791733 109.51292082 -93.75 107.8125 C-91.44204782 104.02253791 -89.97234423 101.52168537 -91 97 C-93.2758823 92.77518254 -93.2758823 92.77518254 -97 90 C-98.53668865 89.77532169 -100.07968054 89.59203195 -101.625 89.4375 C-102.85089844 89.31181641 -102.85089844 89.31181641 -104.1015625 89.18359375 C-104.72804687 89.12300781 -105.35453125 89.06242187 -106 89 C-104 87 -104 87 -100.9375 86.5625 C-94.91752076 85.01956414 -91.31368824 78.87942281 -88 74 C-86.754868 71.29073455 -86.754868 71.29073455 -86 69 C-85.11064623 72.303314 -84.53725895 75.62294375 -84 79 C-81.39865016 80.1344095 -81.39865016 80.1344095 -78 80 C-73.1333105 77.11263495 -69.64462174 72.62578228 -66.2109375 68.21875 C-60.44760614 61.12050984 -54.00520781 54.74029862 -47.51586914 48.31005859 C-45.43248256 46.24502676 -43.35730835 44.17200604 -41.28320312 42.09765625 C-39.93797176 40.75733884 -38.59228423 39.41747909 -37.24609375 38.078125 C-36.63753036 37.47067444 -36.02896698 36.86322388 -35.40196228 36.23736572 C-31.67023272 32.54592092 -27.82409301 29.03539551 -23.84315491 25.61390686 C-20.77486873 22.92724819 -17.88127329 20.07203912 -15 17.1875 C-14.09870361 16.28717041 -14.09870361 16.28717041 -13.17919922 15.36865234 C-8.39171916 10.52440884 -4.06185488 5.47467397 0 0 Z " fill="#F6D449" transform="translate(254,75)"/>
<path d="M0 0 C2.5625 0.9375 2.5625 0.9375 4.0078125 3.35546875 C11.28249242 20.11647752 14.28086165 37.9258249 16.5625 55.9375 C17.31144531 55.44894531 18.06039062 54.96039063 18.83203125 54.45703125 C22.29561529 52.52951453 24.65529907 52.56889614 28.5625 52.9375 C29.2225 53.5975 29.8825 54.2575 30.5625 54.9375 C29.345625 54.875625 28.12875 54.81375 26.875 54.75 C22.97527726 54.7361712 20.72456576 55.54199564 17.5625 57.9375 C16.10884113 59.15949148 16.10884113 59.15949148 16.49658203 62.8203125 C16.51722771 64.5677592 16.54214401 66.31515837 16.5703125 68.0625 C16.58787141 69.98697351 16.60477542 71.91145308 16.62109375 73.8359375 C16.65168605 76.86117617 16.68669828 79.88610524 16.73388672 82.91113281 C17.16537006 112.10655624 11.81112633 137.99392139 -8.4375 159.9375 C-9.02144531 160.61425781 -9.60539062 161.29101562 -10.20703125 161.98828125 C-18.6043897 171.23600511 -30.53003291 176.56920817 -41.5625 181.9375 C-50.32831517 186.20520127 -58.00392762 190.57151515 -65.4375 196.9375 C-66.04078125 197.40542969 -66.6440625 197.87335938 -67.265625 198.35546875 C-71.19698287 201.42311921 -74.30863892 205.08744753 -77.4375 208.9375 C-77.7675 208.2775 -78.0975 207.6175 -78.4375 206.9375 C-77.75187683 205.16357422 -77.75187683 205.16357422 -76.59838867 202.9921875 C-75.95550652 201.76551865 -75.95550652 201.76551865 -75.29963684 200.5140686 C-74.82306137 199.62255096 -74.3464859 198.73103333 -73.85546875 197.8125 C-72.85402313 195.90186098 -71.85323499 193.99087723 -70.85302734 192.07958984 C-70.32489441 191.07611511 -69.79676147 190.07264038 -69.25262451 189.03875732 C-60.16828985 171.72956887 -51.3566189 154.62307429 -45.4375 135.9375 C-45.16856934 135.09268066 -44.89963867 134.24786133 -44.62255859 133.37744141 C-40.17352987 118.9768615 -37.80095168 103.97759258 -37 88.9375 C-35.11313286 58.85442953 -22.22368702 32.4258277 -6.7109375 7.12109375 C-5.34495013 5.01231174 -5.34495013 5.01231174 -4.875 2.6875 C-4.730625 2.11 -4.58625 1.5325 -4.4375 0.9375 C-2.4375 -0.0625 -2.4375 -0.0625 0 0 Z " fill="#D8AA3B" transform="translate(373.4375,158.0625)"/>
<path d="M0 0 C7.04273529 12.67692353 4.46246395 37.05373444 1.04052734 50.78149414 C-7.58683677 80.72955916 -29.40656681 106.43421914 -56 122 C-57.03012207 122.60545654 -57.03012207 122.60545654 -58.08105469 123.22314453 C-76.27638349 133.74321828 -101.55767017 146 -123 146 C-120.09383678 125.29358705 -102.84012665 105.81380834 -86.7734375 93.4296875 C-77.13446822 86.56521062 -66.68968106 80.86774319 -56.14453125 75.52734375 C-46.83303155 70.79554052 -38.68869693 66.17066416 -31 59 C-30.39671875 58.48695313 -29.7934375 57.97390625 -29.171875 57.4453125 C-13.24651299 43.08271966 -3.97754849 20.61093306 0 0 Z " fill="#D6AB3A" transform="translate(412,281)"/>
<path d="M0 0 C1.75264522 2.62896783 2.50647355 4.27342353 3.375 7.21875 C8.94373428 25.38985916 16.51423051 41.54388482 29 56 C29.94746094 57.11568359 29.94746094 57.11568359 30.9140625 58.25390625 C40.45267024 68.6246053 53.73865598 74.48863689 66.1640625 80.60546875 C92.13686397 93.41919149 112.44597607 112.59723073 123 140 C123.37872934 141.65694085 123.72906651 143.32205962 124 145 C115.22654545 144.52999351 107.25359958 141.80790826 99 139 C98.14083984 138.71205566 97.28167969 138.42411133 96.39648438 138.12744141 C77.7881617 131.84129656 61.62186028 123.91166847 46 112 C45.154375 111.37867188 44.30875 110.75734375 43.4375 110.1171875 C30.59789466 100.36077686 19.68070965 88.55236967 11 75 C10.42894531 74.14792969 9.85789063 73.29585938 9.26953125 72.41796875 C-0.00910282 57.27161236 -2.17592924 38.87928213 -2.1875 21.5 C-2.19974609 20.53191406 -2.21199219 19.56382812 -2.22460938 18.56640625 C-2.23753447 12.14694211 -1.50772434 6.23933063 0 0 Z " fill="#F5D54A" transform="translate(119,282)"/>
<path d="M0 0 C2.96386281 3.68815083 5.21303118 7.72236131 7.5625 11.8125 C10.93618642 17.62110792 14.43237271 23.30513523 18.1875 28.875 C18.60644531 29.49834229 19.02539062 30.12168457 19.45703125 30.76391602 C21.24799 33.42175248 23.04922177 36.07146424 24.8671875 38.7109375 C43.89845742 67.21399152 50.85665436 101.31871085 44.15234375 135.0546875 C39.19614937 157.21875237 30.41469414 176.86581275 19.92044067 196.8863678 C19.20316605 198.25516399 18.48692404 199.62450177 17.771698 200.99436951 C16.03757368 204.3156372 14.29321973 207.63009702 12.51953125 210.93041992 C6.86888605 221.56893509 3.27445448 232.41517404 0 244 C-1.66612064 241.50081904 -2.48231368 239.89252915 -3.3671875 237.12109375 C-3.61130371 236.36876465 -3.85541992 235.61643555 -4.10693359 234.84130859 C-4.36039551 234.04805176 -4.61385742 233.25479492 -4.875 232.4375 C-7.01867351 225.85382992 -9.27827561 219.37203711 -12 213 C-11.18208984 212.01773438 -11.18208984 212.01773438 -10.34765625 211.015625 C-7.8779978 208.02670504 -5.43225737 205.01935398 -3 202 C-2.23429687 201.05125 -1.46859375 200.1025 -0.6796875 199.125 C12.42210904 182.32548388 19.24955987 163.55645001 24 143 C24.48726563 141.22109375 24.48726563 141.22109375 24.984375 139.40625 C27.71235066 128.39977398 28.33415709 117.35913901 28.25 106.0625 C28.24323242 104.74290283 28.23646484 103.42330566 28.22949219 102.0637207 C28.13526479 93.20798849 27.79511766 84.69478776 26 76 C25.8551416 75.29568848 25.7102832 74.59137695 25.56103516 73.86572266 C23.95474573 66.20760273 22.15776552 59.19037373 19 52 C18.38736581 50.02970616 17.80372238 48.0501544 17.25 46.0625 C15.06234844 38.79250965 12.07753606 32.01421906 8.94970703 25.11425781 C7.95697439 22.90421548 6.98899619 20.68466964 6.02734375 18.4609375 C5.70870361 17.72464111 5.39006348 16.98834473 5.06176758 16.22973633 C4.44729675 14.80814196 3.83381828 13.38611815 3.22143555 11.96362305 C1.9786399 8.75061715 1.9786399 8.75061715 0 6 C-0.04080783 4.00041636 -0.04254356 1.99954746 0 0 Z " fill="#D6A83A" transform="translate(266,131)"/>
<path d="M0 0 C-3.58415989 18.48217387 -24.22820198 37.73262281 -36.67431641 50.99780273 C-42.72901146 57.45840399 -48.56538469 64.00044311 -54 71 C-54.42490723 71.54172852 -54.84981445 72.08345703 -55.28759766 72.64160156 C-68.41951305 89.49241491 -78.85479757 108.17732178 -84 129 C-84.30164063 130.18980469 -84.60328125 131.37960938 -84.9140625 132.60546875 C-88.98694164 150.97148917 -88.950679 172.28941097 -82.90625 190.25 C-81.80397046 193.59484827 -81.86007838 196.50195959 -82 200 C-85.43453198 198.46203092 -88.14389276 196.4264398 -91.0625 194.0625 C-91.91972656 193.37285156 -92.77695313 192.68320312 -93.66015625 191.97265625 C-99.16315908 187.33322983 -100.1428598 184.15208885 -101 177 C-101.29255731 172.18378421 -101.33418118 167.38671623 -101.3125 162.5625 C-101.31001251 161.90115051 -101.30752502 161.23980103 -101.30496216 160.55841064 C-101.17088514 137.45328375 -96.77285306 113.44543757 -83.75 93.8125 C-81.44204782 90.02253791 -79.97234423 87.52168537 -81 83 C-83.2758823 78.77518254 -83.2758823 78.77518254 -87 76 C-88.53668865 75.77532169 -90.07968054 75.59203195 -91.625 75.4375 C-92.85089844 75.31181641 -92.85089844 75.31181641 -94.1015625 75.18359375 C-94.72804687 75.12300781 -95.35453125 75.06242187 -96 75 C-94 73 -94 73 -90.9375 72.5625 C-84.91752076 71.01956414 -81.31368824 64.87942281 -78 60 C-76.754868 57.29073455 -76.754868 57.29073455 -76 55 C-75.11064623 58.303314 -74.53725895 61.62294375 -74 65 C-71.39865016 66.1344095 -71.39865016 66.1344095 -68 66 C-63.1333105 63.11263495 -59.64462174 58.62578228 -56.2109375 54.21875 C-50.44760614 47.12050984 -44.00520781 40.74029862 -37.51586914 34.31005859 C-35.43248256 32.24502676 -33.35730835 30.17200604 -31.28320312 28.09765625 C-29.93797176 26.75733884 -28.59228423 25.41747909 -27.24609375 24.078125 C-26.63753036 23.47067444 -26.02896698 22.86322388 -25.40196228 22.23736572 C-21.65047336 18.52637486 -17.78202766 15.00044662 -13.77830505 11.56278992 C-10.3536906 8.55320901 -7.26202936 5.2241822 -4.1015625 1.94140625 C-2 0 -2 0 0 0 Z " fill="#F8FAF6" transform="translate(244,89)"/>
<path d="M0 0 C2.5625 0.9375 2.5625 0.9375 4.4375 3.75 C5.5382649 6.86883388 5.81927888 7.96693174 4.5625 10.9375 C4.5625 9.9475 4.5625 8.9575 4.5625 7.9375 C3.5725 7.9375 2.5825 7.9375 1.5625 7.9375 C1.44245605 9.12899658 1.32241211 10.32049316 1.19873047 11.5480957 C-4.70540641 69.48668348 -4.70540641 69.48668348 -15.4375 95.9375 C-15.75557617 96.74316406 -16.07365234 97.54882812 -16.40136719 98.37890625 C-23.49426444 116.24249932 -32.64468366 139.02504919 -48.4375 150.9375 C-47.49218256 143.21197472 -45.64561201 135.96294151 -43.5 128.5 C-39.81802399 115.50125604 -37.73181583 102.42836565 -37 88.9375 C-35.11313286 58.85442953 -22.22368702 32.4258277 -6.7109375 7.12109375 C-5.34495013 5.01231174 -5.34495013 5.01231174 -4.875 2.6875 C-4.730625 2.11 -4.58625 1.5325 -4.4375 0.9375 C-2.4375 -0.0625 -2.4375 -0.0625 0 0 Z " fill="#F5D048" transform="translate(373.4375,158.0625)"/>
<path d="M0 0 C0.33 0 0.66 0 1 0 C3.27486861 22.49592296 -9.52639228 44.96677103 -23 62 C-27.41478078 67.24367317 -32.14364196 72.16654931 -37 77 C-37.72703125 77.73089844 -37.72703125 77.73089844 -38.46875 78.4765625 C-53.3576759 93.28089223 -74.71159097 105.3343723 -94.5625 112.125 C-95.27857422 112.37636719 -95.99464844 112.62773437 -96.73242188 112.88671875 C-108.56618128 117 -108.56618128 117 -114 117 C-112.46560501 104.70260247 -97.48263405 92.14724427 -88.35839844 84.65136719 C-78.50238811 77.05440544 -67.22161315 71.13713053 -56.14453125 65.52734375 C-46.83303155 60.79554052 -38.68869693 56.17066416 -31 49 C-30.39671875 48.48695313 -29.7934375 47.97390625 -29.171875 47.4453125 C-19.06768709 38.33265705 -12.03349595 25.02580763 -6 13 C-5.34 13 -4.68 13 -4 13 C-3.79503906 12.14535156 -3.59007812 11.29070312 -3.37890625 10.41015625 C-3.10949219 9.30542969 -2.84007812 8.20070313 -2.5625 7.0625 C-2.29566406 5.96035156 -2.02882813 4.85820312 -1.75390625 3.72265625 C-1 1 -1 1 0 0 Z " fill="#F5D54B" transform="translate(412,291)"/>
<path d="M0 0 C2.82235183 2.73934148 5.34735609 5.44845874 7.75 8.5625 C12.16957906 13.80432633 18.34630293 15.98918761 25 17 C27.26995419 17.06652855 29.54168695 17.08543751 31.8125 17.0625 C33.55466797 17.04896484 33.55466797 17.04896484 35.33203125 17.03515625 C36.21246094 17.02355469 37.09289062 17.01195312 38 17 C38 14.03 38 11.06 38 8 C40.12393663 11.18590494 41.2968424 14.17099475 42.6640625 17.74609375 C45.53806451 25.09439308 48.85720623 32.14464147 52.421875 39.17993164 C53.37483794 41.0621799 54.31694954 42.94956986 55.2578125 44.83789062 C59.87405642 54.04874868 64.77064256 63.10489879 70.15985107 71.89089966 C71.16501966 73.5601003 72.08927037 75.27745356 73 77 C72.67 77.66 72.34 78.32 72 79 C71.34515625 78.23816406 70.6903125 77.47632813 70.015625 76.69140625 C58.9061176 64.0042662 46.64174596 56.45298132 31.68359375 48.89453125 C15.5412375 40.70388302 -1.60925825 30.11808228 -8 12 C-7.34 12 -6.68 12 -6 12 C-4.95502642 13.16965793 -3.963904 14.38768092 -3 15.625 C2.61267957 22.23159158 10.03336827 25.88262237 18 29 C17.4225 28.30132812 16.845 27.60265625 16.25 26.8828125 C15.5075 25.97273438 14.765 25.06265625 14 24.125 C13.2575 23.22007812 12.515 22.31515625 11.75 21.3828125 C10 19 10 19 10 17 C9.34 17 8.68 17 8 17 C6.5625 15.20703125 6.5625 15.20703125 5 12.8125 C4.484375 12.03519531 3.96875 11.25789063 3.4375 10.45703125 C1.36914047 6.92171021 0 4.12822687 0 0 Z " fill="#D7AB3C" transform="translate(164,289)"/>
<path d="M0 0 C0.99 0.99 0.99 0.99 2 2 C0.783125 1.938125 -0.43375 1.87625 -1.6875 1.8125 C-5.58722274 1.7986712 -7.83793424 2.60449564 -11 5 C-12.45365887 6.22199148 -12.45365887 6.22199148 -12.06591797 9.8828125 C-12.04527229 11.6302592 -12.02035599 13.37765837 -11.9921875 15.125 C-11.97462859 17.04947351 -11.95772458 18.97395308 -11.94140625 20.8984375 C-11.91081395 23.92367617 -11.87580172 26.94860524 -11.82861328 29.97363281 C-11.39712994 59.16905624 -16.75137367 85.05642139 -37 107 C-37.58394531 107.67675781 -38.16789062 108.35351562 -38.76953125 109.05078125 C-48.97870697 120.29379755 -64.5932196 126.56028324 -78 133 C-78.33 132.34 -78.66 131.68 -79 131 C-78.22914063 130.38511719 -77.45828125 129.77023437 -76.6640625 129.13671875 C-75.66117187 128.32847656 -74.65828125 127.52023437 -73.625 126.6875 C-72.62726563 125.88699219 -71.62953125 125.08648437 -70.6015625 124.26171875 C-67.86519247 122.08378314 -67.86519247 122.08378314 -66 119 C-65.34 119 -64.68 119 -64 119 C-63.731875 118.360625 -63.46375 117.72125 -63.1875 117.0625 C-62 115 -62 115 -59 114 C-58.29273092 112.68775282 -57.63361038 111.34935544 -57 110 C-55.74339356 108.32724467 -54.44834411 106.68297231 -53.125 105.0625 C-52.44695312 104.22847656 -51.76890625 103.39445312 -51.0703125 102.53515625 C-49.72391372 100.88645283 -48.36511487 99.24777229 -46.9921875 97.62109375 C-44.67581519 94.57347449 -42.83654198 91.34630363 -41 88 C-40.38640625 86.93523437 -39.7728125 85.87046875 -39.140625 84.7734375 C-30.43007522 69.11604429 -23.78601432 51.76843718 -19.9375 34.25 C-19.628125 33.1775 -19.31875 32.105 -19 31 C-18.01 30.67 -17.02 30.34 -16 30 C-15.505 31.98 -15.505 31.98 -15 34 C-15.01571045 33.23856689 -15.0314209 32.47713379 -15.04760742 31.69262695 C-15.11008453 28.2326606 -15.14903172 24.7728131 -15.1875 21.3125 C-15.21263672 20.11431641 -15.23777344 18.91613281 -15.26367188 17.68164062 C-15.27333984 16.52470703 -15.28300781 15.36777344 -15.29296875 14.17578125 C-15.3086792 13.11270752 -15.32438965 12.04963379 -15.34057617 10.9543457 C-14.83328578 6.55382886 -13.17026411 3.94271276 -9.75 1.1875 C-6.29596671 -0.30401438 -3.72565842 -0.35147721 0 0 Z " fill="#B7852C" transform="translate(402,211)"/>
<path d="M0 0 C3.13574628 2.973674 5.65469808 6.12798023 8.1875 9.625 C11.06391881 13.54452228 14.05601806 17.25517106 17.375 20.8125 C38.33074632 43.7431334 45.95488616 66.05801593 45 97 C41.7991283 93.9706342 39.70100592 90.43469299 37.4375 86.6875 C34.11045001 81.25630905 30.64586609 76.00724244 26.875 70.875 C11.84402003 50.15505005 0.88478643 25.83576371 0 0 Z " fill="#F5D149" transform="translate(276,73)"/>
<path d="M0 0 C0.33 0 0.66 0 1 0 C0.60406085 7.57630008 -0.67221441 14.2273521 -3.1875 21.375 C-3.50138672 22.29200684 -3.81527344 23.20901367 -4.13867188 24.15380859 C-6.24129393 30.17389164 -8.69051431 35.91896176 -11.46875 41.66015625 C-14.79628227 48.91791158 -17.38980996 56.46093828 -20 64 C-20.27376465 64.77166504 -20.5475293 65.54333008 -20.82958984 66.33837891 C-26.15823434 81.56353797 -28.14932567 97.04499434 -30 113 C-31.65 112.67 -33.3 112.34 -35 112 C-35 111.34 -35 110.68 -35 110 C-37.64 110 -40.28 110 -43 110 C-45.26455488 74.12657502 -29.69181312 45.19250244 -10.25537109 16.37915039 C-6.99052946 11.53271908 -3.88603936 6.63217516 -0.98828125 1.5546875 C-0.66214844 1.04164063 -0.33601563 0.52859375 0 0 Z " fill="#F7F9F6" transform="translate(261,130)"/>
<path d="M0 0 C1.0828125 0.680625 1.0828125 0.680625 2.1875 1.375 C10.57331416 6.22013707 20.59958569 7.9951141 29.875 10.5 C31.57462891 10.96212891 31.57462891 10.96212891 33.30859375 11.43359375 C41.55040054 13.65878608 49.75405194 15.7081406 58.1875 17.0625 C59.15042969 17.21847656 60.11335938 17.37445313 61.10546875 17.53515625 C62.06066406 17.68855469 63.01585937 17.84195312 64 18 C66.00018804 18.33220312 68.00024073 18.66522549 70 19 C69.505 18.38125 69.01 17.7625 68.5 17.125 C67 15 67 15 67 13 C66.34 13 65.68 13 65 13 C65.33 11.68 65.66 10.36 66 9 C80.24145288 30.10899793 80.24145288 30.10899793 82 41 C73.22654545 40.52999351 65.25359958 37.80790826 57 35 C56.14083984 34.71205566 55.28167969 34.42411133 54.39648438 34.12744141 C35.76029337 27.83188226 19.68061713 19.86587032 4 8 C3.12730469 7.35160156 2.25460938 6.70320313 1.35546875 6.03515625 C-0.43754731 4.70059964 -2.22044874 3.35245896 -4 2 C-3.34 1.67 -2.68 1.34 -2 1 C-1.34 1.33 -0.68 1.66 0 2 C0 1.34 0 0.68 0 0 Z " fill="#DBAC3D" transform="translate(161,386)"/>
<path d="M0 0 C1.69668107 1.64194942 3.3537973 3.30774968 5 5 C5.66644531 5.68191406 6.33289063 6.36382812 7.01953125 7.06640625 C26.65416849 27.93895407 33.82017378 50.65078079 33.06347656 78.94311523 C33.0425293 79.62188721 33.02158203 80.30065918 33 81 C30.15841139 78.27240061 28.0723696 75.35866798 26 72 C26 71.34 26 70.68 26 70 C26.66 70 27.32 70 28 70 C24.31322104 45.59971479 16.71349326 23.53684046 1.3046875 3.83203125 C0 2 0 2 0 0 Z " fill="#CA9A34" transform="translate(288,89)"/>
<path d="M0 0 C1.16983592 3.42923947 0.81794535 5.52741236 -0.22265625 8.96484375 C-0.51092285 9.92366455 -0.79918945 10.88248535 -1.09619141 11.87036133 C-1.41507324 12.88251709 -1.73395508 13.89467285 -2.0625 14.9375 C-2.38395996 15.97350342 -2.70541992 17.00950684 -3.03662109 18.0769043 C-5.46822785 25.73065322 -8.32039553 32.85424879 -12 40 C-12.46664062 40.97839844 -12.93328125 41.95679688 -13.4140625 42.96484375 C-16.72186347 49.86093173 -16.72186347 49.86093173 -19 51 C-18.125 46.25 -18.125 46.25 -17 44 C-16.34 44 -15.68 44 -15 44 C-15.33 42.35 -15.66 40.7 -16 39 C-15.01 39 -14.02 39 -13 39 C-12.87625 38.46375 -12.7525 37.9275 -12.625 37.375 C-12 35 -12 35 -10.9375 32.0625 C-10.04939975 29.16137251 -9.82329656 27.0039585 -10 24 C-10.66 24 -11.32 24 -12 24 C-12.33 24.66 -12.66 25.32 -13 26 C-13.66 26 -14.32 26 -15 26 C-15 26.66 -15 27.32 -15 28 C-15.66 27.67 -16.32 27.34 -17 27 C-16.36771484 26.00419922 -16.36771484 26.00419922 -15.72265625 24.98828125 C-15.17480469 24.10527344 -14.62695312 23.22226563 -14.0625 22.3125 C-13.51722656 21.44238281 -12.97195312 20.57226562 -12.41015625 19.67578125 C-10.88502018 17.13461813 -10.88502018 17.13461813 -10.625 14.5625 C-9.72240379 10.86185555 -7.40044025 8.47567032 -4.9375 5.6875 C-4.46505859 5.13771484 -3.99261719 4.58792969 -3.50585938 4.02148438 C-2.345619 2.6737304 -1.17392776 1.33584883 0 0 Z " fill="#F3DD5A" transform="translate(254,75)"/>
<path d="M0 0 C0.66 0.66 1.32 1.32 2 2 C0.783125 1.938125 -0.43375 1.87625 -1.6875 1.8125 C-5.58722274 1.7986712 -7.83793424 2.60449564 -11 5 C-12.45365887 6.22199148 -12.45365887 6.22199148 -12.06591797 9.8828125 C-12.04527229 11.6302592 -12.02035599 13.37765837 -11.9921875 15.125 C-11.97462859 17.04947351 -11.95772458 18.97395308 -11.94140625 20.8984375 C-11.91081395 23.92367617 -11.87580172 26.94860524 -11.82861328 29.97363281 C-11.49281358 52.69482145 -14.29850695 74.05558327 -26 94 C-26.99 94.495 -26.99 94.495 -28 95 C-28 93.68 -28 92.36 -28 91 C-27.34 91 -26.68 91 -26 91 C-26 90.01 -26 89.02 -26 88 C-25.34 88 -24.68 88 -24 88 C-23.67 85.69 -23.34 83.38 -23 81 C-22.34 81 -21.68 81 -21 81 C-20.87625 80.15566406 -20.7525 79.31132812 -20.625 78.44140625 C-19.752102 73.63501165 -18.32012326 69.02144676 -16.9375 64.33984375 C-13.79669705 51.43934376 -14.94284218 37.50187787 -15.17138672 24.32568359 C-15.21370002 21.73791632 -15.23712523 19.15051813 -15.2578125 16.5625 C-15.27643341 15.77601074 -15.29505432 14.98952148 -15.3142395 14.17919922 C-15.33576071 9.57830269 -14.85649161 6.65411129 -12 3 C-8.07569556 -0.16124524 -4.96712985 -0.46859716 0 0 Z " fill="#937842" transform="translate(402,211)"/>
<path d="M0 0 C0.99 0.33 1.98 0.66 3 1 C-1.91176503 7.28705924 -7.22085984 13.18494336 -12.67651367 19 C-21.57778792 28.49878684 -29.69231532 38.38603082 -37.28369141 48.96264648 C-39.36768595 51.85360706 -41.43393828 54.52945847 -44 57 C-43.34 54.69 -42.68 52.38 -42 50 C-41.34 50 -40.68 50 -40 50 C-40 49.01 -40 48.02 -40 47 C-39.34 47 -38.68 47 -38 47 C-37.87625 46.401875 -37.7525 45.80375 -37.625 45.1875 C-37 43 -37 43 -35 40 C-34.34 40 -33.68 40 -33 40 C-33 39.01 -33 38.02 -33 37 C-32.34 37 -31.68 37 -31 37 C-31 36.34 -31 35.68 -31 35 C-29.125 32.875 -29.125 32.875 -27 31 C-26.34 31 -25.68 31 -25 31 C-24.34 29.35 -23.68 27.7 -23 26 C-22.34 26 -21.68 26 -21 26 C-21 25.34 -21 24.68 -21 24 C-20.34 24 -19.68 24 -19 24 C-19 23.01 -19 22.02 -19 21 C-16.75 18.5625 -16.75 18.5625 -14 16 C-13.278125 15.236875 -12.55625 14.47375 -11.8125 13.6875 C-10 12 -10 12 -8 12 C-6.79371992 9.66785852 -5.8345262 7.50357861 -5 5 C-4.01 5 -3.02 5 -2 5 C-1.34 3.35 -0.68 1.7 0 0 Z " fill="#FEFBD1" transform="translate(220,121)"/>
<path d="M0 0 C0.99 0.33 1.98 0.66 3 1 C3.19551338 2.60320974 3.38111983 4.20762986 3.5625 5.8125 C3.66691406 6.70582031 3.77132812 7.59914063 3.87890625 8.51953125 C4 11 4 11 3 14 C1.02 14 -0.96 14 -3 14 C-4.21297649 16.2806707 -4.21297649 16.2806707 -5 19 C-4.23396041 21.2857711 -4.23396041 21.2857711 -3 23 C-3.99 23 -4.98 23 -6 23 C-7.15208295 20.4401499 -8.29679373 17.87741487 -9.4375 15.3125 C-9.92573242 14.2306543 -9.92573242 14.2306543 -10.42382812 13.12695312 C-12.0592842 9.43453168 -13.43489334 6.03533913 -14 2 C-9.96901538 3.36268684 -7.40933249 5.16546316 -4.3125 8.0625 C-1.38568199 10.86293113 -1.38568199 10.86293113 2 13 C1.34 8.71 0.68 4.42 0 0 Z " fill="#EDD457" transform="translate(160,276)"/>
<path d="M0 0 C0.33 0 0.66 0 1 0 C2.21365813 15.9942803 2.10305022 31.97172748 2 48 C1.67 48 1.34 48 1 48 C0.34 44.04 -0.32 40.08 -1 36 C-1.66 36 -2.32 36 -3 36 C-2.855625 34.87722656 -2.71125 33.75445312 -2.5625 32.59765625 C-1.24810958 22.36715798 -1.24810958 22.36715798 -0.99609375 12.0703125 C-1.00372316 8.02672518 -0.46902785 4.0118632 0 0 Z " fill="#C59739" transform="translate(386,206)"/>
<path d="M0 0 C0.33 0 0.66 0 1 0 C0.61198725 7.70191422 -0.7559772 14.42526017 -3.3125 21.6875 C-3.60833984 22.57244141 -3.90417969 23.45738281 -4.20898438 24.36914062 C-6.07843931 29.83214825 -8.30682635 34.8930769 -11 40 C-12.31538327 35.84228506 -11.34433068 33.1120703 -10 29 C-9.34 29 -8.68 29 -8 29 C-6.29304267 23.34428139 -4.60665302 17.68507992 -3 12 C-5.475 13.485 -5.475 13.485 -8 15 C-6.62859834 11.32305352 -4.96304199 8.04681411 -2.9375 4.6875 C-2.41027344 3.80449219 -1.88304687 2.92148438 -1.33984375 2.01171875 C-0.89769531 1.34785156 -0.45554687 0.68398437 0 0 Z " fill="#FEFAC1" transform="translate(261,130)"/>
<path d="M0 0 C3.17391668 3.00235362 5.71252601 6.19753642 8.25 9.75 C8.95640625 10.73484375 9.6628125 11.7196875 10.390625 12.734375 C10.92171875 13.48203125 11.4528125 14.2296875 12 15 C11.67 15.66 11.34 16.32 11 17 C9.68 16.34 8.36 15.68 7 15 C7 14.34 7 13.68 7 13 C6.01 13.495 6.01 13.495 5 14 C5 15.98 5 17.96 5 20 C5.66 20 6.32 20 7 20 C6.01 22.475 6.01 22.475 5 25 C2.68119578 21.52179367 2.18192851 18.8416981 1.375 14.75 C1.11460937 13.46609375 0.85421875 12.1821875 0.5859375 10.859375 C0.02555521 7.16832367 -0.1061778 3.72587543 0 0 Z " fill="#ECD159" transform="translate(276,73)"/>
<path d="M0 0 C2.11044382 3.16566573 2.75552077 5.51197415 3.625 9.1875 C3.88539062 10.27417969 4.14578125 11.36085938 4.4140625 12.48046875 C4.60742188 13.31191406 4.80078125 14.14335937 5 15 C4.01 15 3.02 15 2 15 C1.67 14.01 1.34 13.02 1 12 C0.67 22.23 0.34 32.46 0 43 C-0.33 43 -0.66 43 -1 43 C-1.85452571 35.81765734 -2.18268608 28.73050427 -2.1875 21.5 C-2.19974609 20.53191406 -2.21199219 19.56382812 -2.22460938 18.56640625 C-2.23753447 12.14694211 -1.50772434 6.23933063 0 0 Z " fill="#DDC766" transform="translate(119,282)"/>
<path d="M0 0 C0.66 0.33 1.32 0.66 2 1 C-3.20088938 9.57978315 -8.40256107 18.15242381 -13.875 26.5625 C-17.14104141 31.5993574 -20.2034988 36.68805301 -23 42 C-24.53271273 37.41201223 -23.02911182 35.22055258 -21 31 C-20.34 31 -19.68 31 -19 31 C-18.7525 30.0925 -18.505 29.185 -18.25 28.25 C-16.92040096 24.7930425 -15.56796647 23.56796647 -13 21 C-11.82263388 18.70984902 -10.92680238 16.40968619 -10 14 C-9.34 14 -8.68 14 -8 14 C-7.34 11.69 -6.68 9.38 -6 7 C-5.34 7 -4.68 7 -4 7 C-4 6.34 -4 5.68 -4 5 C-3.34 5 -2.68 5 -2 5 C-1.855625 4.360625 -1.71125 3.72125 -1.5625 3.0625 C-1 1 -1 1 0 0 Z " fill="#E6CC5C" transform="translate(231,130)"/>
<path d="M0 0 C0.66 0 1.32 0 2 0 C2.67354499 1.43429001 3.33859701 2.87257057 4 4.3125 C4.556875 5.51326172 4.556875 5.51326172 5.125 6.73828125 C6 9 6 9 6 12 C6.66 12 7.32 12 8 12 C8 12.99 8 13.98 8 15 C8.66 15 9.32 15 10 15 C10 16.32 10 17.64 10 19 C10.66 19.33 11.32 19.66 12 20 C13.0703125 21.77734375 13.0703125 21.77734375 14.125 23.9375 C14.47820312 24.64777344 14.83140625 25.35804688 15.1953125 26.08984375 C16 28 16 28 16 30 C16.66 30 17.32 30 18 30 C19.27253436 33.64793184 20.32829194 37.1936543 21 41 C21.66 41 22.32 41 23 41 C22.67 41.99 22.34 42.98 22 44 C19.90835556 41.30992764 18.12576916 38.60156059 16.4765625 35.62109375 C15.78433594 34.37066284 15.78433594 34.37066284 15.078125 33.0949707 C14.59859375 32.21800537 14.1190625 31.34104004 13.625 30.4375 C13.13257813 29.53797607 12.64015625 28.63845215 12.1328125 27.71166992 C7.2387768 18.70212116 3.05232165 9.79955897 0 0 Z " fill="#DFCC5D" transform="translate(227,290)"/>
<path d="M0 0 C1.29537094 3.88611282 0.08563632 6.17016 -1.1875 9.875 C-5.26090121 22.50497948 -6.42066606 35.87371222 -8 49 C-9.65 48.67 -11.3 48.34 -13 48 C-13 47.34 -13 46.68 -13 46 C-11.68 46 -10.36 46 -9 46 C-9.02835938 44.741875 -9.05671875 43.48375 -9.0859375 42.1875 C-9.08379571 36.71308623 -8.40230114 31.41121178 -7.625 26 C-7.49867188 25.06671875 -7.37234375 24.1334375 -7.2421875 23.171875 C-6.43157565 17.36789415 -5.34418843 11.70403437 -4 6 C-3.34 6 -2.68 6 -2 6 C-1.855625 5.195625 -1.71125 4.39125 -1.5625 3.5625 C-1 1 -1 1 0 0 Z " fill="#FEFACA" transform="translate(239,194)"/>
<path d="M0 0 C2.71378247 4.88480844 3.12600802 9.42843543 3.09765625 14.95703125 C3.09443359 16.06884766 3.09121094 17.18066406 3.08789062 18.32617188 C3.07951172 19.47666016 3.07113281 20.62714844 3.0625 21.8125 C3.05798828 22.98232422 3.05347656 24.15214844 3.04882812 25.35742188 C3.0370693 28.23833358 3.02063426 31.11914044 3 34 C2.67 34 2.34 34 2 34 C1.34 26.41 0.68 18.82 0 11 C-0.99 14.96 -1.98 18.92 -3 23 C-3.99 23 -4.98 23 -6 23 C-5.81824219 22.34515625 -5.63648438 21.6903125 -5.44921875 21.015625 C-3.52672958 14.03551046 -1.72994005 7.0301819 0 0 Z " fill="#D2B859" transform="translate(412,281)"/>
<path d="M0 0 C-0.85722656 0.58007812 -1.71445312 1.16015625 -2.59765625 1.7578125 C-11.42565557 7.77050746 -19.24267374 13.63378653 -26 22 C-26.33 21.34 -26.66 20.68 -27 20 C-25.92481882 17.55667274 -24.80191434 15.23245477 -23.5625 12.875 C-23.22412109 12.21628906 -22.88574219 11.55757813 -22.53710938 10.87890625 C-21.69850074 9.24893453 -20.85015189 7.62398091 -20 6 C-19.87625 6.639375 -19.7525 7.27875 -19.625 7.9375 C-19.41875 8.618125 -19.2125 9.29875 -19 10 C-18.34 10.33 -17.68 10.66 -17 11 C-16.67 9.35 -16.34 7.7 -16 6 C-14.68 6 -13.36 6 -12 6 C-12 5.34 -12 4.68 -12 4 C-10.56988027 3.13353333 -9.13059381 2.28218171 -7.6875 1.4375 C-6.88699219 0.96183594 -6.08648437 0.48617188 -5.26171875 -0.00390625 C-3 -1 -3 -1 0 0 Z " fill="#CAAD55" transform="translate(322,345)"/>
<path d="M0 0 C2.5625 0.9375 2.5625 0.9375 4.4375 3.75 C5.5382649 6.86883388 5.81927888 7.96693174 4.5625 10.9375 C4.5625 9.9475 4.5625 8.9575 4.5625 7.9375 C3.5725 7.9375 2.5825 7.9375 1.5625 7.9375 C1.2325 10.2475 0.9025 12.5575 0.5625 14.9375 C0.2325 14.9375 -0.0975 14.9375 -0.4375 14.9375 C-0.7675 12.2975 -1.0975 9.6575 -1.4375 6.9375 C-3.91998124 7.27415915 -3.91998124 7.27415915 -6.4375 8.9375 C-7.79825884 11.84505893 -8.65112959 14.83037788 -9.4375 17.9375 C-10.0975 17.9375 -10.7575 17.9375 -11.4375 17.9375 C-10.42137374 14.46573527 -9.21582394 11.41177812 -7.375 8.3125 C-5.81972997 5.60331995 -5.11408983 3.86938926 -4.4375 0.9375 C-2.4375 -0.0625 -2.4375 -0.0625 0 0 Z " fill="#E6C358" transform="translate(373.4375,158.0625)"/>
<path d="M0 0 C0.33 0 0.66 0 1 0 C1.00410889 0.78834229 1.00821777 1.57668457 1.01245117 2.38891602 C1.16445008 19.14892317 2.16186966 34.64433252 6.67041016 50.91064453 C7.03797299 53.24072065 6.72198899 54.77360501 6 57 C2.6696521 51.30617939 1.49691266 46.90809401 1.17578125 40.3203125 C1.14528895 37.97526978 1.14528895 37.97526978 0 36 C-0.08675538 33.30106819 -0.11557897 30.62830769 -0.09765625 27.9296875 C-0.0962413 27.13345978 -0.09482635 26.33723206 -0.09336853 25.51687622 C-0.08776345 22.9695462 -0.07521014 20.42230353 -0.0625 17.875 C-0.05748565 16.14974085 -0.05292263 14.42448033 -0.04882812 12.69921875 C-0.03779237 8.46611209 -0.02052436 4.23307086 0 0 Z " fill="#C6AC4D" transform="translate(191,229)"/>
<path d="M0 0 C0.33 0 0.66 0 1 0 C1.33 2.97 1.66 5.94 2 9 C2.99 9 3.98 9 5 9 C4.19596684 14.22621555 1.16499244 17.99387017 -2.75 21.375 C-3.4925 21.91125 -4.235 22.4475 -5 23 C-3.83675515 15.15836122 -2.2452987 7.60407828 0 0 Z " fill="#E9CD54" transform="translate(330,286)"/>
<path d="M0 0 C0.66 0 1.32 0 2 0 C1.89171875 0.88171875 1.89171875 0.88171875 1.78125 1.78125 C0.01805469 18.82547133 0.42407611 36.07250013 3 53 C1 52 1 52 -0.1105957 49.04785156 C-1.30310232 44.45696732 -1.269289 39.95167411 -1.23046875 35.234375 C-1.23001053 34.31916077 -1.22955231 33.40394653 -1.2290802 32.46099854 C-1.2260737 30.53811333 -1.21823579 28.61523022 -1.20581055 26.69238281 C-1.1874711 23.74535538 -1.18530169 20.79864126 -1.18554688 17.8515625 C-1.18063405 15.97916394 -1.17480675 14.10676752 -1.16796875 12.234375 C-1.16685593 11.35311951 -1.1657431 10.47186401 -1.16459656 9.56390381 C-1.15821671 8.74585266 -1.15183685 7.92780151 -1.14526367 7.08496094 C-1.14145187 6.36661072 -1.13764008 5.6482605 -1.13371277 4.90814209 C-1 3 -1 3 0 0 Z " fill="#FDF3B7" transform="translate(156,222)"/>
<path d="M0 0 C1.92089844 0.32275391 1.92089844 0.32275391 4 1 C5.265625 3.8359375 5.265625 3.8359375 6.25 7.375 C6.58515625 8.53773438 6.9203125 9.70046875 7.265625 10.8984375 C8 14 8 14 8 17 C8.66 17 9.32 17 10 17 C10.33 18.65 10.66 20.3 11 22 C11.66 20.68 12.32 19.36 13 18 C13.66 18 14.32 18 15 18 C14.71682074 19.60568666 14.42312209 21.20952047 14.125 22.8125 C13.88136719 24.15248047 13.88136719 24.15248047 13.6328125 25.51953125 C13 28 13 28 11 31 C10.80889648 30.41621582 10.61779297 29.83243164 10.42089844 29.23095703 C9.53392237 26.52786813 8.6419849 23.82643999 7.75 21.125 C7.44964844 20.2071875 7.14929688 19.289375 6.83984375 18.34375 C4.78321595 12.13010855 2.50202288 6.04792522 0 0 Z " fill="#CAAF53" transform="translate(254,344)"/>
<path d="M0 0 C7.58127067 2.34658378 12.23215307 4.68961436 17 11 C17.66 9.68 18.32 8.36 19 7 C20.36396462 9.45334555 21.71634169 11.91191234 23.0625 14.375 C23.64741211 15.42300781 23.64741211 15.42300781 24.24414062 16.4921875 C25.22415178 18.29610184 26.11875071 20.14583482 27 22 C26.67 22.66 26.34 23.32 26 24 C25.34515625 23.23816406 24.6903125 22.47632813 24.015625 21.69140625 C18.31840793 15.19974391 12.60911207 9.84091208 5.53125 4.83984375 C3.46149949 3.33544176 1.7273666 1.87325905 0 0 Z " fill="#BD9F4D" transform="translate(210,344)"/>
<path d="M0 0 C3.74559974 1.47066493 3.74559974 1.47066493 4.87109375 3.8125 C5.05800781 4.534375 5.24492187 5.25625 5.4375 6 C6.77940958 10.60722289 8.74200948 14.61789371 11.01171875 18.8359375 C12 21 12 21 12 24 C12.99 24 13.98 24 15 24 C18.125 30.625 18.125 30.625 17 34 C12.33205015 26.86151287 8.18752724 19.65984088 4.5625 11.9375 C4.22089844 11.21183838 3.87929688 10.48617676 3.52734375 9.73852539 C2.04579843 6.52211158 0.78318087 3.45084611 0 0 Z " fill="#DCC559" transform="translate(283,106)"/>
<path d="M0 0 C7.57621517 7.33182113 14.45833255 15.00293991 20 24 C19.34 24.66 18.68 25.32 18 26 C17.34 24.02 16.68 22.04 16 20 C15.26007813 19.96519531 14.52015625 19.93039063 13.7578125 19.89453125 C9.89125992 18.64036618 8.73520967 16.0733757 6.875 12.6875 C4.25943352 8.07365462 4.25943352 8.07365462 1.2578125 3.70703125 C0 2 0 2 0 0 Z " fill="#CBAD4B" transform="translate(288,89)"/>
<path d="M0 0 C0.99 0.33 1.98 0.66 3 1 C-3.51239543 6.14321257 -10.54462745 10.03217798 -17.875 13.875 C-18.80272217 14.36331299 -19.73044434 14.85162598 -20.6862793 15.35473633 C-28.06795725 19.17497818 -28.06795725 19.17497818 -32 20 C-32 19.34 -32 18.68 -32 18 C-31.34 18 -30.68 18 -30 18 C-29.67 17.34 -29.34 16.68 -29 16 C-25.9375 15.375 -25.9375 15.375 -23 15 C-23 14.34 -23 13.68 -23 13 C-20.36 12.34 -17.72 11.68 -15 11 C-15 10.34 -15 9.68 -15 9 C-14.0925 8.566875 -13.185 8.13375 -12.25 7.6875 C-9.07459389 6.16060591 -9.07459389 6.16060591 -6.8125 4.3125 C-5 3 -5 3 -2 3 C-2 2.34 -2 1.68 -2 1 C-1.34 0.67 -0.68 0.34 0 0 Z " fill="#C0A44E" transform="translate(365,394)"/>
<path d="M0 0 C-1.61660645 8.81785338 -8.49296233 17.14141829 -14 24 C-14.33 23.01 -14.66 22.02 -15 21 C-14.07421875 19.17578125 -14.07421875 19.17578125 -12.6875 17.3125 C-12.23761719 16.68988281 -11.78773438 16.06726563 -11.32421875 15.42578125 C-10.88722656 14.95527344 -10.45023438 14.48476562 -10 14 C-9.34 14 -8.68 14 -8 14 C-7.67 12.35 -7.34 10.7 -7 9 C-7.99 8.67 -8.98 8.34 -10 8 C-8.71451591 6.66070495 -7.42141845 5.32871357 -6.125 4 C-5.40570313 3.2575 -4.68640625 2.515 -3.9453125 1.75 C-2 0 -2 0 0 0 Z " fill="#FEFBCD" transform="translate(244,89)"/>
<path d="M0 0 C2 0 2 0 3.62109375 1.57421875 C12 11.32258065 12 11.32258065 12 16 C13.65 16.33 15.3 16.66 17 17 C17.33 18.98 17.66 20.96 18 23 C10.31094818 17.1105135 3.21455716 9.26949023 0 0 Z " fill="#C3A243" transform="translate(156,301)"/>
<path d="M0 0 C0.66 0.33 1.32 0.66 2 1 C2 9.25 2 17.5 2 26 C-0.85449645 23.14550355 -2.88798596 20.4229193 -5 17 C-5 16.34 -5 15.68 -5 15 C-4.01 15 -3.02 15 -2 15 C-1.67 15.66 -1.34 16.32 -1 17 C-0.67 11.39 -0.34 5.78 0 0 Z " fill="#C9A048" transform="translate(319,144)"/>
<path d="M0 0 C0.64453125 1.828125 0.64453125 1.828125 1 4 C-1.3125 6.75 -1.3125 6.75 -4 9 C-4.66 9 -5.32 9 -6 9 C-6.23589844 9.73863281 -6.47179687 10.47726563 -6.71484375 11.23828125 C-8.20658799 14.44394441 -9.85559125 15.94115678 -12.5625 18.1875 C-15.75292835 20.71926521 -15.75292835 20.71926521 -18 24 C-18.66 23.67 -19.32 23.34 -20 23 C-13.64004798 15.0225787 -6.95913644 7.45343024 0 0 Z " fill="#F0DA6C" transform="translate(212,134)"/>
<path d="M0 0 C1.00693162 3.12179408 0.97289724 4.98969669 0.00390625 8.109375 C-0.22490234 8.86347656 -0.45371094 9.61757812 -0.68945312 10.39453125 C-0.93630859 11.17183594 -1.18316406 11.94914062 -1.4375 12.75 C-1.68048828 13.54277344 -1.92347656 14.33554688 -2.17382812 15.15234375 C-2.77354195 17.10435346 -3.38558121 19.05256883 -4 21 C-4.33 21 -4.66 21 -5 21 C-4.67 17.37 -4.34 13.74 -4 10 C-5.65 11.65 -7.3 13.3 -9 15 C-9.66 14.34 -10.32 13.68 -11 13 C-10.06027344 11.96939453 -10.06027344 11.96939453 -9.1015625 10.91796875 C-8.28429687 10.01691406 -7.46703125 9.11585937 -6.625 8.1875 C-5.81289062 7.29417969 -5.00078125 6.40085937 -4.1640625 5.48046875 C-1.90927093 3.00367326 -1.90927093 3.00367326 0 0 Z " fill="#E4D266" transform="translate(254,75)"/>
<path d="M0 0 C-4.37763297 2.91842198 -9.1772993 4.33389707 -14.125 6.0625 C-15.13304687 6.42666016 -16.14109375 6.79082031 -17.1796875 7.16601562 C-23.18944111 9.27176478 -28.64264066 10.57044869 -35 11 C-31.30502348 7.30502348 -26.48126564 6.54897399 -21.5 5.4375 C-20.3965625 5.18871094 -19.293125 4.93992187 -18.15625 4.68359375 C-15.4419714 4.095724 -12.72533783 3.53388148 -10 3 C-10 2.34 -10 1.68 -10 1 C-3.375 -1.125 -3.375 -1.125 0 0 Z " fill="#C5A850" transform="translate(332,414)"/>
<path d="M0 0 C0.33 0.66 0.66 1.32 1 2 C0 5 0 5 -2 6 C-2.33 6.99 -2.66 7.98 -3 9 C-4.31266518 10.35368596 -5.64567325 11.68799596 -7 13 C-7.33 13.66 -7.66 14.32 -8 15 C-8.66 15 -9.32 15 -10 15 C-10.226875 15.845625 -10.45375 16.69125 -10.6875 17.5625 C-12.01903246 21.04984692 -13.61693504 23.46696362 -15.87890625 26.38671875 C-17.19722062 28.12217901 -17.19722062 28.12217901 -18 31 C-18.66 31 -19.32 31 -20 31 C-15.81497627 19.89359088 -8.45416047 8.45416047 0 0 Z " fill="#EBD362" transform="translate(191,158)"/>
<path d="M0 0 C0.99 0 1.98 0 3 0 C1.35883266 3.99254745 -1.41109417 6.8866721 -4.3125 10 C-4.78623047 10.52078125 -5.25996094 11.0415625 -5.74804688 11.578125 C-8.62885986 14.69933415 -11.60303256 17.42597731 -15 20 C-15.33 19.01 -15.66 18.02 -16 17 C-13.31158141 14.74754119 -11.35358125 13.11786042 -8 12 C-7.87625 11.443125 -7.7525 10.88625 -7.625 10.3125 C-6.65320769 6.71686845 -4.52982443 4.71493353 -2 2 C-1.34 2 -0.68 2 0 2 C0 1.34 0 0.68 0 0 Z " fill="#AB853E" transform="translate(371,306)"/>
<path d="M0 0 C1.69368105 1.64529017 3.35332209 3.3085754 5 5 C5.886875 5.9075 6.77375 6.815 7.6875 7.75 C10.52103322 11.7322629 11.29034604 15.23366747 12 20 C11.34 19.67 10.68 19.34 10 19 C10 18.34 10 17.68 10 17 C9.34 17 8.68 17 8 17 C6.5625 15.20703125 6.5625 15.20703125 5 12.8125 C4.484375 12.03519531 3.96875 11.25789063 3.4375 10.45703125 C1.36914047 6.92171021 0 4.12822687 0 0 Z " fill="#C9A12F" transform="translate(164,289)"/>
<path d="M0 0 C0.66 0.66 1.32 1.32 2 2 C-1.63 9.59 -5.26 17.18 -9 25 C-9.66 25 -10.32 25 -11 25 C-10.30953378 19.47627027 -7.9496621 13.9496621 -4 10 C-3.42440161 8.49903768 -2.90869583 6.97443718 -2.4375 5.4375 C-1.09722222 1.09722222 -1.09722222 1.09722222 0 0 Z " fill="#CBA84D" transform="translate(298,297)"/>
<path d="M0 0 C0.99 0.33 1.98 0.66 3 1 C3 7.6 3 14.2 3 21 C-1.20574513 15.39233982 -1.52908772 9.75318217 -0.5625 2.875 C-0.376875 1.92625 -0.19125 0.9775 0 0 Z " fill="#D19F36" transform="translate(316,142)"/>
<path d="M0 0 C1.32 0 2.64 0 4 0 C4.66 1.65 5.32 3.3 6 5 C6.9590625 4.7215625 6.9590625 4.7215625 7.9375 4.4375 C8.618125 4.293125 9.29875 4.14875 10 4 C11 5 11 5 11.09765625 6.84765625 C11.04882812 9.92382812 11.04882812 9.92382812 11 13 C10.01 13 9.02 13 8 13 C5.95703125 10.41015625 5.95703125 10.41015625 3.8125 7.0625 C3.09707031 5.96035156 2.38164062 4.85820312 1.64453125 3.72265625 C0 1 0 1 0 0 Z " fill="#E7C751" transform="translate(305,146)"/>
<path d="M0 0 C3.08842858 3.83775223 5.46729774 8.06580756 7.9375 12.3125 C8.36740234 13.04662109 8.79730469 13.78074219 9.24023438 14.53710938 C11.85501741 19.00882482 14.43701354 23.49842053 17 28 C16.34 28 15.68 28 15 28 C10.86543494 23.06582566 7.8929981 18.15224381 6 12 C5.01 11.67 4.02 11.34 3 11 C0.1355568 7.28683289 -0.32332002 4.63425362 0 0 Z " fill="#C2A74D" transform="translate(266,131)"/>
<path d="M0 0 C1.28743634 3.86230901 0.42149169 5.46227153 -0.8125 9.3125 C-2.98134766 16.50947199 -4.13621261 23.5214197 -5 31 C-7.4294516 27.3558226 -7.16179575 25.28758728 -7 21 C-6.34 21 -5.68 21 -5 21 C-5.01160156 20.36191406 -5.02320313 19.72382813 -5.03515625 19.06640625 C-5.04417969 18.24011719 -5.05320313 17.41382813 -5.0625 16.5625 C-5.07410156 15.73878906 -5.08570313 14.91507813 -5.09765625 14.06640625 C-5 12 -5 12 -4 11 C-3.87625 9.906875 -3.7525 8.81375 -3.625 7.6875 C-3.01508516 4.08900247 -2.41455588 2.62451727 0 0 Z " fill="#E3CD61" transform="translate(198,192)"/>
<path d="M0 0 C2.89932357 2.39509338 3.50168276 4.31245243 4 8 C-4.02770189 7.44636539 -11.33854067 5.34312056 -19 3 C-15.58860997 1.90348177 -12.79344419 2.05784527 -9.25 2.4375 C-8.26515625 2.53933594 -7.2803125 2.64117187 -6.265625 2.74609375 C-5.14414063 2.87177734 -5.14414063 2.87177734 -4 3 C-4 3.66 -4 4.32 -4 5 C-2.68 5 -1.36 5 0 5 C0 3.35 0 1.7 0 0 Z " fill="#B89646" transform="translate(239,419)"/>
<path d="M0 0 C3 0 3 0 5.0625 1.9375 C7.52308079 5.82680512 8.25578632 9.50534105 9 14 C8.01 14 7.02 14 6 14 C4.9923048 12.2335343 3.99408286 10.46166177 3 8.6875 C2.443125 7.70136719 1.88625 6.71523437 1.3125 5.69921875 C0 3 0 3 0 0 Z " fill="#CD9E36" transform="translate(301,109)"/>
<path d="M0 0 C1.65 0 3.3 0 5 0 C1.42566337 4.18927627 -2.92780311 6.294918 -7.75 8.75 C-8.54277344 9.16121094 -9.33554687 9.57242187 -10.15234375 9.99609375 C-12.09818916 11.00418234 -14.04733738 12.00519928 -16 13 C-16 10 -16 10 -15 8.4375 C-12.43074538 6.59084824 -9.99538954 6.1467142 -6.9375 5.4609375 C-4.71082852 4.93120517 -2.89879183 4.29117845 -1 3 C-0.67 2.01 -0.34 1.02 0 0 Z " fill="#A37E3C" transform="translate(348,327)"/>
<path d="M0 0 C0.66 0 1.32 0 2 0 C3.41265059 3.79374718 2.5530586 6.2950161 1.34765625 10.078125 C0.98349609 11.23828125 0.61933594 12.3984375 0.24414062 13.59375 C-0.14580078 14.8003125 -0.53574219 16.006875 -0.9375 17.25 C-1.32357422 18.47203125 -1.70964844 19.6940625 -2.10742188 20.953125 C-3.06253858 23.97176544 -4.0270364 26.987074 -5 30 C-5.66 28.68 -6.32 27.36 -7 26 C-6.34 26 -5.68 26 -5 26 C-5.061875 25.154375 -5.12375 24.30875 -5.1875 23.4375 C-4.96564836 19.37021996 -3.66111043 16.70555403 -2 13 C-0.64267803 8.68947447 0.28409302 4.54548836 0 0 Z " fill="#CBA850" transform="translate(306,267)"/>
<path d="M0 0 C0.33 0 0.66 0 1 0 C1.45108512 7.04193988 1.50559901 11.27667153 -3 17 C-4.75674531 20.28954293 -6.38031072 23.64113616 -8 27 C-8.33 26.34 -8.66 25.68 -9 25 C-8.15268153 22.61318742 -7.24633387 20.32373704 -6.25 18 C-3.78991326 12.08597424 -1.66177711 6.19522168 0 0 Z " fill="#ECD464" transform="translate(260,141)"/>
<path d="M0 0 C0.66 0 1.32 0 2 0 C0.23881495 6.16414768 -2.22153322 11.77216212 -5.0625 17.5 C-5.41505859 18.21865234 -5.76761719 18.93730469 -6.13085938 19.67773438 C-8.7525042 24.8762521 -8.7525042 24.8762521 -11 26 C-10.125 21.25 -10.125 21.25 -9 19 C-8.34 19 -7.68 19 -7 19 C-7.33 17.35 -7.66 15.7 -8 14 C-7.01 14 -6.02 14 -5 14 C-4.87753906 13.44828125 -4.75507813 12.8965625 -4.62890625 12.328125 C-3.92006389 9.70408745 -2.96388744 7.2663047 -1.9375 4.75 C-1.57527344 3.85796875 -1.21304688 2.9659375 -0.83984375 2.046875 C-0.56269531 1.37140625 -0.28554687 0.6959375 0 0 Z " fill="#DCC95D" transform="translate(246,100)"/>
<path d="M0 0 C0.33 0 0.66 0 1 0 C1 3.96 1 7.92 1 12 C3.64 12 6.28 12 9 12 C9 12.66 9 13.32 9 14 C9.99 14.33 10.98 14.66 12 15 C10.02 15 8.04 15 6 15 C6 14.34 6 13.68 6 13 C5.01 13.66 4.02 14.32 3 15 C2.26393501 18.56769552 2.26393501 18.56769552 2 22 C1.34 22 0.68 22 0 22 C0 14.74 0 7.48 0 0 Z " fill="#BEB265" transform="translate(217,228)"/>
<path d="M0 0 C0.99 0 1.98 0 3 0 C1.66284034 4.14148062 0.17050437 8.16912211 -1.5 12.1875 C-1.9228125 13.21230469 -2.345625 14.23710937 -2.78125 15.29296875 C-4 18 -4 18 -6 21 C-6 18.36 -6 15.72 -6 13 C-5.34 13 -4.68 13 -4 13 C-4.0825 12.34 -4.165 11.68 -4.25 11 C-3.89896359 6.78756306 -2.03039227 3.65289323 0 0 Z " fill="#FEFCD1" transform="translate(167,189)"/>
<path d="M0 0 C1.13708622 3.83867406 0.59280131 5.31140749 -1 9 C-1.28875 10.258125 -1.5775 11.51625 -1.875 12.8125 C-2.91932174 17.17212887 -4.58263756 21.21342836 -7 25 C-7.66 25.33 -8.32 25.66 -9 26 C-6.56696874 17.12157015 -3.29163506 8.58594775 0 0 Z " fill="#EDD668" transform="translate(249,170)"/>
<path d="M0 0 C1.36266457 4.08799371 -0.19196182 6.54831538 -1.8125 10.3125 C-2.3623127 11.62040738 -2.91051205 12.92899424 -3.45703125 14.23828125 C-3.72080566 14.86814941 -3.98458008 15.49801758 -4.25634766 16.14697266 C-5.29149455 18.72634393 -6.15842271 21.35211047 -7 24 C-7.33 24 -7.66 24 -8 24 C-8.46663958 18.51698489 -7.40536661 15.08903936 -5.0234375 10.15625 C-3.76706956 7.50924578 -2.86083615 4.79771749 -2 2 C-1.34 2 -0.68 2 0 2 C0 1.34 0 0.68 0 0 Z " fill="#FEFBD2" transform="translate(248,170)"/>
<path d="M0 0 C0.33 0 0.66 0 1 0 C1 1.98 1 3.96 1 6 C0.01 6.33 -0.98 6.66 -2 7 C-2.87914855 8.96845043 -2.87914855 8.96845043 -3.4375 11.3125 C-4.59171336 15.16806376 -5.76808108 17.43675396 -9 20 C-9.66 19.34 -10.32 18.68 -11 18 C-10.28972656 16.95199219 -9.57945312 15.90398437 -8.84765625 14.82421875 C-7.91908801 13.44543561 -6.99071262 12.06652257 -6.0625 10.6875 C-5.59392578 9.99720703 -5.12535156 9.30691406 -4.64257812 8.59570312 C-4.19462891 7.92861328 -3.74667969 7.26152344 -3.28515625 6.57421875 C-2.66459351 5.65515747 -2.66459351 5.65515747 -2.03149414 4.7175293 C-0.83424013 2.86495115 -0.83424013 2.86495115 0 0 Z " fill="#DFC855" transform="translate(402,311)"/>
<path d="M0 0 C0.33 0 0.66 0 1 0 C0.9872674 3.74975216 0.84905303 7.33879679 0 11 C-2.9375 13.125 -2.9375 13.125 -6 14 C-6.99 14.495 -6.99 14.495 -8 15 C-6.62859834 11.32305352 -4.96304199 8.04681411 -2.9375 4.6875 C-2.41027344 3.80449219 -1.88304687 2.92148438 -1.33984375 2.01171875 C-0.89769531 1.34785156 -0.45554687 0.68398437 0 0 Z " fill="#E8EAE0" transform="translate(261,130)"/>
<path d="M0 0 C3.78557181 1.48748738 5.41567193 3.55349866 7.6875 6.875 C8.28949219 7.73867188 8.89148438 8.60234375 9.51171875 9.4921875 C10.86296396 11.76908887 11.39346678 13.47277827 12 16 C13.9837767 17.28436734 13.9837767 17.28436734 16 18 C15.34 18.66 14.68 19.32 14 20 C8.56791188 13.66848117 3.68940398 7.50858599 0 0 Z " fill="#DCC65F" transform="translate(129,354)"/>
<path d="M0 0 C0.33 0 0.66 0 1 0 C1.125 6.75 1.125 6.75 0 9 C-0.27485459 11.78781084 -0.44612738 14.57535455 -0.62109375 17.37109375 C-1 20 -1 20 -3 23 C-3.66 23.33 -4.32 23.66 -5 24 C-4.32859917 19.02259576 -3.48265824 14.11553108 -2.5 9.1875 C-2.30470703 8.18686523 -2.30470703 8.18686523 -2.10546875 7.16601562 C-1.12209821 2.24419643 -1.12209821 2.24419643 0 0 Z " fill="#DCC558" transform="translate(336,262)"/>
<path d="M0 0 C2.94586829 4.41880243 3.0985616 6.67767339 3 12 C2.34 12 1.68 12 1 12 C-0.63676257 13.9600281 -0.63676257 13.9600281 -2 16 C-2.05449838 14.27119018 -2.09301688 12.54187288 -2.125 10.8125 C-2.14820313 9.84957031 -2.17140625 8.88664063 -2.1953125 7.89453125 C-1.9913544 4.87187222 -1.26874632 2.73230015 0 0 Z " fill="#E0CE65" transform="translate(263,124)"/>
<path d="M0 0 C0.66 0.33 1.32 0.66 2 1 C0.21654158 3.98415422 -1.5781173 6.96141303 -3.375 9.9375 C-3.88289062 10.78763672 -4.39078125 11.63777344 -4.9140625 12.51367188 C-5.40390625 13.32255859 -5.89375 14.13144531 -6.3984375 14.96484375 C-6.84880371 15.7137085 -7.29916992 16.46257324 -7.76318359 17.23413086 C-9 19 -9 19 -11 20 C-10.67 18.02 -10.34 16.04 -10 14 C-9.34 14 -8.68 14 -8 14 C-7.34 11.69 -6.68 9.38 -6 7 C-5.34 7 -4.68 7 -4 7 C-4 6.34 -4 5.68 -4 5 C-3.34 5 -2.68 5 -2 5 C-1.855625 4.360625 -1.71125 3.72125 -1.5625 3.0625 C-1 1 -1 1 0 0 Z " fill="#D9C35B" transform="translate(231,130)"/>
<path d="M0 0 C0.33 0 0.66 0 1 0 C1.24042276 4.08718695 0.42258812 7.17679443 -1 11 C-0.01 11.99 0.98 12.98 2 14 C-0.31 14.33 -2.62 14.66 -5 15 C-3.97137215 9.55432314 -2.75385216 4.88182883 0 0 Z " fill="#BD9F4B" transform="translate(294,412)"/>
<path d="M0 0 C5.33333333 5.33333333 10.66666667 10.66666667 16 16 C14.35 16.33 12.7 16.66 11 17 C10.9175 16.21625 10.835 15.4325 10.75 14.625 C10.27193661 11.85250896 10.27193661 11.85250896 7.9375 10.6875 C7.298125 10.460625 6.65875 10.23375 6 10 C6 9.34 6 8.68 6 8 C5.34 8 4.68 8 4 8 C0 2.58823529 0 2.58823529 0 0 Z " fill="#D7C25E" transform="translate(143,333)"/>
<path d="M0 0 C4.41889613 1.35021826 6.34345343 3.26115668 9 7 C7.68 7 6.36 7 5 7 C5 8.98 5 10.96 5 13 C3.09610151 10.14415227 2.30537823 8.0688238 1.375 4.8125 C0.98441406 3.46091797 0.98441406 3.46091797 0.5859375 2.08203125 C0.39257812 1.39496094 0.19921875 0.70789063 0 0 Z " fill="#E2CC5C" transform="translate(146,278)"/>
<path d="M0 0 C-0.89203125 0.61488281 -1.7840625 1.22976563 -2.703125 1.86328125 C-3.88544566 2.67964551 -5.06773571 3.4960541 -6.25 4.3125 C-6.83652344 4.71662109 -7.42304688 5.12074219 -8.02734375 5.53710938 C-11.06342595 7.63507629 -14.06850175 9.75783921 -17 12 C-16.67 10.02 -16.34 8.04 -16 6 C-14.68 6 -13.36 6 -12 6 C-12 5.34 -12 4.68 -12 4 C-10.56988027 3.13353333 -9.13059381 2.28218171 -7.6875 1.4375 C-6.88699219 0.96183594 -6.08648437 0.48617188 -5.26171875 -0.00390625 C-3 -1 -3 -1 0 0 Z " fill="#C9A84D" transform="translate(322,345)"/>
<path d="M0 0 C0.99 0 1.98 0 3 0 C2.39733215 4.50727647 0.63400206 7.8587963 -1.5625 11.8125 C-2.0565332 12.7087207 -2.0565332 12.7087207 -2.56054688 13.62304688 C-3.36773267 15.08533998 -4.18304917 16.5431399 -5 18 C-5.66 17.67 -6.32 17.34 -7 17 C-7 16.34 -7 15.68 -7 15 C-6.34 15 -5.68 15 -5 15 C-4.896875 14.319375 -4.79375 13.63875 -4.6875 12.9375 C-3.86157719 9.4085571 -2.46990238 6.30728035 -1 3 C-0.67 2.01 -0.34 1.02 0 0 Z " fill="#C3A349" transform="translate(284,323)"/>
<path d="M0 0 C2.11044382 3.16566573 2.75552077 5.51197415 3.625 9.1875 C3.88539062 10.27417969 4.14578125 11.36085938 4.4140625 12.48046875 C4.60742188 13.31191406 4.80078125 14.14335937 5 15 C4.01 15 3.02 15 2 15 C-0.93161919 9.37129115 -1.2019586 6.22833095 0 0 Z " fill="#D3BA5F" transform="translate(119,282)"/>
<path d="M0 0 C1 3 1 3 -0.3125 5.6875 C-0.869375 6.450625 -1.42625 7.21375 -2 8 C-2.66 8 -3.32 8 -4 8 C-4.061875 8.5775 -4.12375 9.155 -4.1875 9.75 C-5.32027301 12.88690987 -7.34197595 14.09167504 -10 16 C-10.66 15.67 -11.32 15.34 -12 15 C-11.13375 14.01 -10.2675 13.02 -9.375 12 C-6.05802459 8.13809292 -3.00716738 4.10552994 0 0 Z " fill="#EFD867" transform="translate(233,108)"/>
<path d="M0 0 C0.66 0 1.32 0 2 0 C5.05511356 6.7648943 6.31409035 13.61887689 6 21 C3.74982247 17.62473371 2.86995001 14.36925005 1.875 10.5 C1.60236328 9.48486328 1.60236328 9.48486328 1.32421875 8.44921875 C0.56317822 5.54810937 0 3.0122546 0 0 Z " fill="#DAC55D" transform="translate(221,268)"/>
<path d="M0 0 C0.66 0 1.32 0 2 0 C1.01 8.25 0.02 16.5 -1 25 C-2.65 24.67 -4.3 24.34 -6 24 C-6 23.34 -6 22.68 -6 22 C-4.68 22 -3.36 22 -2 22 C-2.04125 20.783125 -2.0825 19.56625 -2.125 18.3125 C-2.14480938 12.11216291 -1.05485097 6.093648 0 0 Z " fill="#FDF9B8" transform="translate(232,218)"/>
<path d="M0 0 C1.90086201 5.39224121 -0.23667495 10.78823683 -2 16 C-4.1875 19.25 -4.1875 19.25 -6 21 C-5.42381249 15.85404946 -4.25256722 11.44921945 -2.4375 6.5625 C-1.98246094 5.32628906 -1.52742188 4.09007812 -1.05859375 2.81640625 C-0.70925781 1.88699219 -0.35992187 0.95757812 0 0 Z " fill="#CBAF51" transform="translate(347,202)"/>
<path d="M0 0 C0.33 0.66 0.66 1.32 1 2 C-3.16704183 6.85743929 -7.41844996 11.53019508 -12 16 C-12.66 15.67 -13.32 15.34 -14 15 C-12.0421736 12.87453098 -10.08376183 10.74960666 -8.125 8.625 C-7.29162109 7.72007813 -7.29162109 7.72007813 -6.44140625 6.796875 C-5.90644531 6.21679688 -5.37148437 5.63671875 -4.8203125 5.0390625 C-4.08192139 4.23782959 -4.08192139 4.23782959 -3.32861328 3.42041016 C-2.24184238 2.25855182 -1.12494128 1.12494128 0 0 Z " fill="#646564" transform="translate(208,89)"/>
<path d="M0 0 C0.763125 0.309375 1.52625 0.61875 2.3125 0.9375 C4.18789677 1.67893593 6.08684652 2.36228217 8 3 C9.2065625 4.2375 9.2065625 4.2375 10.4375 5.5 C12.83695476 7.84093148 13.77134114 8.64126013 17 9 C17.33 10.32 17.66 11.64 18 13 C11.48114285 9.65581087 5.51577754 5.85075472 0 1 C0 0.67 0 0.34 0 0 Z " fill="#C3A54E" transform="translate(164,392)"/>
<path d="M0 0 C0.99 0.33 1.98 0.66 3 1 C1.75 3 1.75 3 0 5 C-1.32 5 -2.64 5 -4 5 C-4 5.66 -4 6.32 -4 7 C-6.30276574 9.21747812 -7.52480092 9.96760006 -10.75 10.1875 C-11.4925 10.125625 -12.235 10.06375 -13 10 C-10.6902462 7.51142655 -8.21982599 5.7190403 -5.375 3.875 C-2.54227678 2.11973445 -2.54227678 2.11973445 0 0 Z " fill="#CDBC55" transform="translate(376,344)"/>
<path d="M0 0 C0.5534764 2.07553648 1 3.84365964 1 6 C-2.46153846 9 -2.46153846 9 -5 9 C-5.33 9.99 -5.66 10.98 -6 12 C-7.32 11.67 -8.64 11.34 -10 11 C-9.44570313 10.45730469 -8.89140625 9.91460937 -8.3203125 9.35546875 C-7.23363281 8.28232422 -7.23363281 8.28232422 -6.125 7.1875 C-5.40570313 6.47980469 -4.68640625 5.77210938 -3.9453125 5.04296875 C-1.84641063 2.95600806 -1.84641063 2.95600806 0 0 Z " fill="#DBC555" transform="translate(390,330)"/>
<path d="M0 0 C3.01111938 4.51667907 3.10067926 7.6639991 3 13 C-0.36591866 11.55746343 -2.51047079 9.66735273 -5 7 C-2.525 7.495 -2.525 7.495 0 8 C0 5.36 0 2.72 0 0 Z " fill="#FDF4AF" transform="translate(159,276)"/>
<path d="M0 0 C0.33 0 0.66 0 1 0 C1.88277755 4.51815281 2.10589503 8.77512694 2.0625 13.375 C2.05347656 14.62023437 2.04445312 15.86546875 2.03515625 17.1484375 C2.02355469 18.08945312 2.01195312 19.03046875 2 20 C-1.07289844 14.1539981 -1.21624053 8.48721588 -1 2 C-0.67 1.34 -0.34 0.68 0 0 Z " fill="#E0CA59" transform="translate(219,248)"/>
<path d="M0 0 C0.99 0.33 1.98 0.66 3 1 C1.87802953 3.4389358 0.75256576 5.87615255 -0.375 8.3125 C-0.85066406 9.34793945 -0.85066406 9.34793945 -1.3359375 10.40429688 C-2.73807723 13.42766067 -4.1477087 16.22156305 -6 19 C-6.72370614 13.49983331 -4.7250266 9.96863909 -2.19140625 5.26953125 C-0.8901216 2.93863057 -0.8901216 2.93863057 0 0 Z " fill="#C8A74D" transform="translate(275,342)"/>
<path d="M0 0 C0.66 0 1.32 0 2 0 C1.67080236 3.07251127 1.07683501 3.9335481 -1.3125 6 C-2.199375 6.66 -3.08625 7.32 -4 8 C-4.66 8.70125 -5.32 9.4025 -6 10.125 C-8.21024375 12.19710352 -10.14666454 13.04888818 -13 14 C-13 13.34 -13 12.68 -13 12 C-11.25692106 10.46387524 -9.45450904 8.99459641 -7.625 7.5625 C-4.50197096 5.11330281 -2.20726199 3.31089299 0 0 Z " fill="#BB9238" transform="translate(336,330)"/>
<path d="M0 0 C0.33 0.66 0.66 1.32 1 2 C0.27931168 3.73620367 -0.44747119 5.47067912 -1.23046875 7.1796875 C-2.17352248 9.41046435 -2.63800012 11.61080078 -3 14 C-4.65 14.33 -6.3 14.66 -8 15 C-6.85657478 12.68628057 -5.71038936 10.37400323 -4.5625 8.0625 C-4.23701172 7.40314453 -3.91152344 6.74378906 -3.57617188 6.06445312 C-1.11328125 1.11328125 -1.11328125 1.11328125 0 0 Z " fill="#DAB954" transform="translate(361,176)"/>
<path d="M0 0 C0.99 0.33 1.98 0.66 3 1 C-1.95 7.93 -1.95 7.93 -7 15 C-7.33 14.34 -7.66 13.68 -8 13 C-7.0625 10.375 -7.0625 10.375 -6 8 C-5.34 8 -4.68 8 -4 8 C-4 7.01 -4 6.02 -4 5 C-3.34 5 -2.68 5 -2 5 C-1.855625 4.360625 -1.71125 3.72125 -1.5625 3.0625 C-1 1 -1 1 0 0 Z " fill="#FDF9C7" transform="translate(184,163)"/>
<path d="M0 0 C2.86134241 3.46273075 5.36574534 7.00686276 7.75 10.8125 C8.36359375 11.78832031 8.9771875 12.76414063 9.609375 13.76953125 C10.06828125 14.50558594 10.5271875 15.24164063 11 16 C10.34 16.33 9.68 16.66 9 17 C9 16.34 9 15.68 9 15 C8.01 14.67 7.02 14.34 6 14 C4.96708324 12.01679982 3.9662501 10.01652194 3 8 C2.34 7.67 1.68 7.34 1 7 C0.59270772 4.67843403 0.25561323 2.3431213 0 0 Z " fill="#C4A14E" transform="translate(283,159)"/>
<path d="M0 0 C2.08301383 2.49961659 3.74764619 5.15674019 5.3125 8 C5.86357422 8.99 5.86357422 8.99 6.42578125 10 C7 12 7 12 6.10546875 14.25 C5.74066406 14.8275 5.37585938 15.405 5 16 C4.67 14.35 4.34 12.7 4 11 C2.68 11.33 1.36 11.66 0 12 C0.185625 11.13375 0.37125 10.2675 0.5625 9.375 C1.00667933 5.94847372 0.71954492 3.35787629 0 0 Z " fill="#B78E41" transform="translate(308,114)"/>
<path d="M0 0 C3.71080883 4.42442592 6.84577733 9.17403931 10 14 C9.34 14.66 8.68 15.32 8 16 C8 15.34 8 14.68 8 14 C7.38125 13.835 6.7625 13.67 6.125 13.5 C2.72243051 11.09818625 2.77387974 7.99837866 2 4 C1.34 4 0.68 4 0 4 C0 2.68 0 1.36 0 0 Z " fill="#DFC95F" transform="translate(133,318)"/>
<path d="M0 0 C2 1 2 1 2.88671875 3.58203125 C3.15097656 4.64808594 3.41523438 5.71414063 3.6875 6.8125 C3.95949219 7.87082031 4.23148438 8.92914063 4.51171875 10.01953125 C4.97258895 12.83268294 4.9525694 14.35965663 4 17 C0.5246131 11.02667877 -0.57374185 6.88490225 0 0 Z " fill="#D5BA55" transform="translate(193,269)"/>
<path d="M0 0 C3.14194405 2.64983233 4.53819794 5.81048488 6.25 9.5 C7.06210937 11.21703125 7.06210937 11.21703125 7.890625 12.96875 C9 16 9 16 8 19 C7.67 19 7.34 19 7 19 C6.7525 18.154375 6.505 17.30875 6.25 16.4375 C5.28288315 13.77792866 4.3837616 11.86135076 2.9375 9.5 C1.07192933 6.38609208 0.35555376 3.64442608 0 0 Z " fill="#B4974A" transform="translate(296,181)"/>
<path d="M0 0 C0.66 0 1.32 0 2 0 C1.34 6.6 0.68 13.2 0 20 C-0.33 20 -0.66 20 -1 20 C-1.02696009 17.2291017 -1.04681952 14.4584655 -1.0625 11.6875 C-1.07087891 10.90181641 -1.07925781 10.11613281 -1.08789062 9.30664062 C-1.09111328 8.54931641 -1.09433594 7.79199219 -1.09765625 7.01171875 C-1.10289307 6.31522217 -1.10812988 5.61872559 -1.11352539 4.90112305 C-1 3 -1 3 0 0 Z " fill="#FFFCCB" transform="translate(156,222)"/>
<path d="M0 0 C0.33 0 0.66 0 1 0 C1 8.25 1 16.5 1 25 C-2 22 -2 22 -3 19 C-2.34 19 -1.68 19 -1 19 C-0.67 12.73 -0.34 6.46 0 0 Z " fill="#B2934F" transform="translate(320,145)"/>
<path d="M0 0 C0.33 0 0.66 0 1 0 C0.54240047 6.5508985 -0.2100144 12.6753842 -2 19 C-2.33 19 -2.66 19 -3 19 C-3.33693273 12.03672362 -2.3030887 6.56654456 0 0 Z " fill="#C2A14E" transform="translate(414,315)"/>
<path d="M0 0 C4.62 2.31 9.24 4.62 14 7 C9.99998285 8.00000429 7.94476647 7.80688405 4 7 C4 6.01 4 5.02 4 4 C3.01 4 2.02 4 1 4 C0.67 2.68 0.34 1.36 0 0 Z " fill="#DEC85C" transform="translate(162,351)"/>
<path d="M0 0 C0.33 0 0.66 0 1 0 C2.33257403 13.6332574 2.33257403 13.6332574 1 20 C0.34 19.67 -0.32 19.34 -1 19 C-1.10349817 12.58311325 -0.74507544 6.37305598 0 0 Z " fill="#C59F45" transform="translate(386,206)"/>
<path d="M0 0 C-0.2265625 1.828125 -0.2265625 1.828125 -1 4 C-2.9609375 5.484375 -2.9609375 5.484375 -5.375 6.75 C-6.16648437 7.17796875 -6.95796875 7.6059375 -7.7734375 8.046875 C-10 9 -10 9 -13 9 C-11.21326795 7.4941255 -9.42046492 5.9954515 -7.625 4.5 C-6.62726563 3.6646875 -5.62953125 2.829375 -4.6015625 1.96875 C-2 0 -2 0 0 0 Z " fill="#D3C057" transform="translate(332,371)"/>
<path d="M0 0 C1.70840281 1.63412443 2.93453047 2.86906094 4 5 C4.039992 6.99960012 4.04346799 9.00047242 4 11 C1.4375 8.875 1.4375 8.875 -1 6 C-0.8125 2.6875 -0.8125 2.6875 0 0 Z " fill="#CFAD48" transform="translate(224,345)"/>
<path d="M0 0 C3.82669043 3.42388092 5.72278474 6.00724943 7 11 C6.01 11 5.02 11 4 11 C3.32591692 9.73308493 2.66099503 8.46129251 2 7.1875 C1.62875 6.47980469 1.2575 5.77210938 0.875 5.04296875 C0 3 0 3 0 0 Z " fill="#C1992A" transform="translate(164,289)"/>
<path d="M0 0 C1 2 1 2 0.3125 4.75 C-1.09030108 8.22360267 -2.73135521 11.02240372 -5 14 C-5.66 14 -6.32 14 -7 14 C-5.53967505 8.68972746 -3.01679014 4.53669968 0 0 Z " fill="#271905" transform="translate(214,160)"/>
<path d="M0 0 C2.28814723 2.28814723 2.75451161 3.80751622 3.6875 6.875 C3.95949219 7.73867187 4.23148437 8.60234375 4.51171875 9.4921875 C5.01692938 12.08694932 4.85561171 13.530785 4 16 C2.14223235 12.86501708 1.79859524 10.62528568 2 7 C1.34 7 0.68 7 0 7 C0 4.69 0 2.38 0 0 Z " fill="#A7823C" transform="translate(315,128)"/>
<path d="M0 0 C3.11257569 3.11257569 4.9340406 5.28127309 7 9 C5.68 8.34 4.36 7.68 3 7 C2.67 8.98 2.34 10.96 2 13 C1.67 13 1.34 13 1 13 C0.67 8.71 0.34 4.42 0 0 Z " fill="#C6B55E" transform="translate(276,73)"/>
<path d="M0 0 C0.66 0.33 1.32 0.66 2 1 C-0.64 5.62 -3.28 10.24 -6 15 C-6.33 13.68 -6.66 12.36 -7 11 C-5.625 9.5 -5.625 9.5 -4 8 C-3.28552357 5.89667109 -3.28552357 5.89667109 -3 4 C-2.34 4 -1.68 4 -1 4 C-0.67 2.68 -0.34 1.36 0 0 Z " fill="#C7A64F" transform="translate(404,348)"/>
<path d="M0 0 C4.9430602 0.49430602 8.74976194 1.36890025 13 4 C13.33 4.99 13.66 5.98 14 7 C9.0276578 5.50829734 4.58154261 3.39542583 0 1 C0 0.67 0 0.34 0 0 Z " fill="#C3A34D" transform="translate(184,331)"/>
<path d="M0 0 C-0.24118352 3.25597758 -1.52224212 4.7276304 -3.875 6.8125 C-4.90625 7.534375 -5.9375 8.25625 -7 9 C-7.99 8.67 -8.98 8.34 -10 8 C-8.71451591 6.66070495 -7.42141845 5.32871357 -6.125 4 C-5.04605469 2.88625 -5.04605469 2.88625 -3.9453125 1.75 C-2 0 -2 0 0 0 Z " fill="#E4E2CA" transform="translate(244,89)"/>
<path d="M0 0 C5.15464734 0.48324819 8.81550319 3.18610761 13 6 C12.67 6.99 12.34 7.98 12 9 C10.37327315 7.87749844 8.74867418 6.75191267 7.125 5.625 C5.76761719 4.68527344 5.76761719 4.68527344 4.3828125 3.7265625 C2 2 2 2 0 0 Z " fill="#1B0F01" transform="translate(197,369)"/>
<path d="M0 0 C9.59453303 5.0022779 9.59453303 5.0022779 13 9 C8.25 8.25 8.25 8.25 6 6 C4.68252676 5.30251417 3.35085807 4.63040043 2 4 C2 3.34 2 2.68 2 2 C1.34 2 0.68 2 0 2 C0 1.34 0 0.68 0 0 Z " fill="#1F1101" transform="translate(207,343)"/>
<path d="M0 0 C0.33 0.99 0.66 1.98 1 3 C-0.07421875 5.04296875 -0.07421875 5.04296875 -1.6875 7.1875 C-2.20699219 7.90292969 -2.72648437 8.61835938 -3.26171875 9.35546875 C-5 11 -5 11 -9 11 C-9 10.34 -9 9.68 -9 9 C-7.52460414 7.75411016 -6.04550456 6.51187361 -4.53515625 5.30859375 C-2.6952004 3.74018355 -1.33816421 2.00724632 0 0 Z " fill="#23170A" transform="translate(303,358)"/>
<path d="M0 0 C3.31658613 4.9748792 4.38479461 11.03568353 4 17 C3.31379969 15.67661368 2.65213539 14.34050052 2 13 C1.62875 12.2575 1.2575 11.515 0.875 10.75 C-0.30641152 7.03699237 -0.1318343 3.88911182 0 0 Z " fill="#EEDD98" transform="translate(383,181)"/>
<path d="M0 0 C10.16236162 0.84132841 10.16236162 0.84132841 14 3 C14.33 3.99 14.66 4.98 15 6 C10 4.33333333 5 2.66666667 0 1 C0 0.67 0 0.34 0 0 Z " fill="#C09F4B" transform="translate(196,412)"/>
<path d="M0 0 C0.66 0.99 1.32 1.98 2 3 C-0.31 4.98 -2.62 6.96 -5 9 C-5.66 8.67 -6.32 8.34 -7 8 C-4.69 5.36 -2.38 2.72 0 0 Z " fill="#D8C258" transform="translate(312,387)"/>
<path d="M0 0 C3.59634744 3.49359465 6.83451967 7.11098131 10 11 C9.01 11.33 8.02 11.66 7 12 C6.34 10.35 5.68 8.7 5 7 C4.34 7 3.68 7 3 7 C3 6.34 3 5.68 3 5 C2.34 5 1.68 5 1 5 C0.67 3.35 0.34 1.7 0 0 Z " fill="#281904" transform="translate(164,314)"/>
<path d="M0 0 C1.66171502 2.49257253 2.9387679 4.79516513 4.1875 7.5 C4.55230469 8.2734375 4.91710937 9.046875 5.29296875 9.84375 C6 12 6 12 5 15 C3.26337666 11.77484237 2.1094072 8.48670834 1 5 C0.34 5 -0.32 5 -1 5 C-0.67 3.35 -0.34 1.7 0 0 Z " fill="#BC9847" transform="translate(205,305)"/>
<path d="M0 0 C4.455 2.97 4.455 2.97 9 6 C8.34 6.66 7.68 7.32 7 8 C4.0625 6.8125 4.0625 6.8125 1 5 C0.67 3.35 0.34 1.7 0 0 Z " fill="#DCC759" transform="translate(200,371)"/>
<path d="M0 0 C0.99 0 1.98 0 3 0 C3.53341184 1.57914015 4.05125763 3.16354387 4.5625 4.75 C4.85253906 5.63171875 5.14257812 6.5134375 5.44140625 7.421875 C6 10 6 10 5 14 C3.35 9.38 1.7 4.76 0 0 Z " fill="#231302" transform="translate(203,299)"/>
<path d="M0 0 C2.89932357 2.39509338 3.50168276 4.31245243 4 8 C2.02 8 0.04 8 -2 8 C-2.33 7.34 -2.66 6.68 -3 6 C-2.01 5.67 -1.02 5.34 0 5 C0 3.35 0 1.7 0 0 Z " fill="#BA9B51" transform="translate(239,419)"/>
<path d="M0 0 C0.6875 1.8125 0.6875 1.8125 1 4 C-0.64504011 6.46756016 -1.80299352 6.94960299 -4.6875 7.6875 C-5.8321875 7.8421875 -5.8321875 7.8421875 -7 8 C-6.02133662 6.85373678 -5.04205413 5.70800212 -4.0625 4.5625 C-3.51722656 3.92441406 -2.97195312 3.28632813 -2.41015625 2.62890625 C-1.63204305 1.73008851 -0.84063472 0.84063472 0 0 Z " fill="#DAEBE6" transform="translate(200,130)"/>
<path d="M0 0 C0.33 0 0.66 0 1 0 C1.33 2.31 1.66 4.62 2 7 C0.35 7.33 -1.3 7.66 -3 8 C-2.45276317 4.62537285 -1.9451 2.91765 0 0 Z " fill="#E8CF5A" transform="translate(301,400)"/>
<path d="M0 0 C1.875 0.3125 1.875 0.3125 4 1 C4.66 1.99 5.32 2.98 6 4 C6.99 4.33 7.98 4.66 9 5 C9.33 5.99 9.66 6.98 10 8 C7 8 7 8 5.17578125 6.50390625 C4.56089844 5.86324219 3.94601563 5.22257812 3.3125 4.5625 C2.68988281 3.92441406 2.06726563 3.28632813 1.42578125 2.62890625 C0 1 0 1 0 0 Z " fill="#D8BF58" transform="translate(148,378)"/>
<path d="M0 0 C2.23960447 2.87949147 4.29864224 5.76742026 6 9 C5.67 9.66 5.34 10.32 5 11 C2.69 8.36 0.38 5.72 -2 3 C-1.34 2.01 -0.68 1.02 0 0 Z " fill="#988551" transform="translate(231,357)"/>
<path d="M0 0 C0.66 0 1.32 0 2 0 C1.53199289 4.05606165 1.12046792 7.46588679 -1 11 C-2.60080151 6.99799622 -1.29279692 3.95443764 0 0 Z " fill="#FEFBD1" transform="translate(251,159)"/>
<path d="M0 0 C1.60080151 4.00200378 0.29279692 7.04556236 -1 11 C-1.28875 10.360625 -1.5775 9.72125 -1.875 9.0625 C-2.82823451 6.84793921 -2.82823451 6.84793921 -5 6 C-3.35 4.02 -1.7 2.04 0 0 Z " fill="#C2B164" transform="translate(254,75)"/>
<path d="M0 0 C1.9375 0.8125 1.9375 0.8125 4 2 C4.33 2.99 4.66 3.98 5 5 C2.03 4.505 2.03 4.505 -1 4 C-1 1 -1 1 0 0 Z " fill="#F2CD4C" transform="translate(177,313)"/>
<path d="M0 0 C1.11241681 3.33725042 1.08987444 5.6465402 0 9 C-2.0625 11.3125 -2.0625 11.3125 -4 13 C-3.52140759 11.39566191 -3.04210442 9.79153584 -2.5625 8.1875 C-2.29566406 7.29417969 -2.02882813 6.40085937 -1.75390625 5.48046875 C-1.19612127 3.64526945 -0.60655425 1.81966274 0 0 Z " fill="#C4AB53" transform="translate(325,302)"/>
<path d="M0 0 C1.44560748 4.56237823 0.40342867 7.49425532 -1 12 C-1.99 12.495 -1.99 12.495 -3 13 C-2.52060632 8.28596212 -2.03165952 4.33420699 0 0 Z " fill="#231503" transform="translate(199,192)"/>
<path d="M0 0 C-1.5830577 4.2742558 -4.50568404 6.26531794 -8 9 C-6.68994234 5.06982701 -4.75047804 0 0 0 Z " fill="#737573" transform="translate(148,164)"/>
<path d="M0 0 C0 0.66 0 1.32 0 2 C-2.31 2.66 -4.62 3.32 -7 4 C-7 2.68 -7 1.36 -7 0 C-4.3333581 -1.33332095 -2.83319697 -0.67102033 0 0 Z " fill="#ECDB8A" transform="translate(376,159)"/>
<path d="M0 0 C0.99 0 1.98 0 3 0 C4.4783226 2.95664519 4.06032783 5.74229737 4 9 C1.49701566 6.06171403 0.53069061 3.82097239 0 0 Z " fill="#D4A939" transform="translate(301,109)"/>
<path d="M0 0 C3.68006822 3.38168431 5.9785845 6.42521756 8 11 C7.01 11.495 7.01 11.495 6 12 C5.34 10.02 4.68 8.04 4 6 C3.01 6 2.02 6 1 6 C0.67 4.02 0.34 2.04 0 0 Z " fill="#BC9D4F" transform="translate(300,103)"/>
<path d="M0 0 C1.32 0.33 2.64 0.66 4 1 C2.35830472 3.02054804 0.69088222 5.02043058 -1 7 C-1.33 7 -1.66 7 -2 7 C-2 5.35 -2 3.7 -2 2 C-1.34 2 -0.68 2 0 2 C0 1.34 0 0.68 0 0 Z " fill="#C7A24A" transform="translate(385,374)"/>
<path d="M0 0 C0.66 1.32 1.32 2.64 2 4 C0.35 5.98 -1.3 7.96 -3 10 C-3.33 9.34 -3.66 8.68 -4 8 C-3.22265625 6.0546875 -3.22265625 6.0546875 -2.0625 3.875 C-1.49208984 2.78832031 -1.49208984 2.78832031 -0.91015625 1.6796875 C-0.60980469 1.12539063 -0.30945313 0.57109375 0 0 Z " fill="#AD9B5C" transform="translate(299,357)"/>
<path d="M0 0 C1.65 0 3.3 0 5 0 C2.16569547 3.2542015 0.31392226 4.5206753 -4 5 C-3.67 4.34 -3.34 3.68 -3 3 C-2.34 3 -1.68 3 -1 3 C-0.67 2.01 -0.34 1.02 0 0 Z " fill="#AE8840" transform="translate(348,327)"/>
<path d="M0 0 C0.33 0 0.66 0 1 0 C1.24042276 4.08718695 0.42258812 7.17679443 -1 11 C-1.99 11 -2.98 11 -4 11 C-3.52269162 9.5410574 -3.04308958 8.08286504 -2.5625 6.625 C-2.29566406 5.81289063 -2.02882813 5.00078125 -1.75390625 4.1640625 C-1 2 -1 2 0 0 Z " fill="#C2A34F" transform="translate(320,315)"/>
<path d="M0 0 C0.33 0 0.66 0 1 0 C1 1.98 1 3.96 1 6 C0.01 6.33 -0.98 6.66 -2 7 C-2.73323796 9.01508358 -2.73323796 9.01508358 -3 11 C-3.66 11 -4.32 11 -5 11 C-3.55049545 7.2089881 -1.84827434 3.6125362 0 0 Z " fill="#D8C35A" transform="translate(402,311)"/>
<path d="M0 0 C1.60517097 0.08733576 3.20921662 0.19552224 4.8125 0.3125 C6.15248047 0.39951172 6.15248047 0.39951172 7.51953125 0.48828125 C10.30604 1.06313581 11.24135754 1.8206856 13 4 C8.428721 3.45144652 4.32564205 2.58255197 0 1 C0 0.67 0 0.34 0 0 Z " fill="#B3B3B3" transform="translate(202,455)"/>
<path d="M0 0 C0 3 0 3 -2 5.1875 C-2.66 5.785625 -3.32 6.38375 -4 7 C-4.99 6.01 -5.98 5.02 -7 4 C-4.69 2.68 -2.38 1.36 0 0 Z " fill="#1A1003" transform="translate(361,399)"/>
<path d="M0 0 C1 3 1 3 0.22265625 5.04296875 C-0.16019531 5.75066406 -0.54304688 6.45835937 -0.9375 7.1875 C-1.31777344 7.90292969 -1.69804687 8.61835938 -2.08984375 9.35546875 C-2.54037109 10.16951172 -2.54037109 10.16951172 -3 11 C-3.66 10.67 -4.32 10.34 -5 10 C-5 9.34 -5 8.68 -5 8 C-4.34 8 -3.68 8 -3 8 C-2.87625 7.236875 -2.7525 6.47375 -2.625 5.6875 C-2 3 -2 3 0 0 Z " fill="#C9A850" transform="translate(282,330)"/>
<path d="M0 0 C0.33 0 0.66 0 1 0 C0.50769231 7.50769231 0.50769231 7.50769231 -2.0625 10 C-3.0215625 10.495 -3.0215625 10.495 -4 11 C-3.52269162 9.5410574 -3.04308958 8.08286504 -2.5625 6.625 C-2.29566406 5.81289063 -2.02882813 5.00078125 -1.75390625 4.1640625 C-1 2 -1 2 0 0 Z " fill="#221304" transform="translate(384,286)"/>
<path d="M0 0 C0.66 0 1.32 0 2 0 C4.09230769 4.43076923 4.09230769 4.43076923 3.625 7.3125 C3.41875 7.869375 3.2125 8.42625 3 9 C0.87491756 5.81237635 0.4979837 3.73487777 0 0 Z " fill="#E8D15D" transform="translate(221,268)"/>
<path d="M0 0 C2.45823172 3.68734758 3.01242616 6.69699971 4 11 C3.01 10.67 2.02 10.34 1 10 C0.37542727 6.56484998 0 3.50935186 0 0 Z " fill="#3B310D" transform="translate(119,330)"/>
<path d="M0 0 C2.31 0.66 4.62 1.32 7 2 C7.33 3.32 7.66 4.64 8 6 C1.125 2.25 1.125 2.25 0 0 Z " fill="#BC9C49" transform="translate(174,324)"/>
<path d="M0 0 C0.66 0 1.32 0 2 0 C3.32421875 1.64453125 3.32421875 1.64453125 4.6875 3.8125 C5.14511719 4.52019531 5.60273438 5.22789062 6.07421875 5.95703125 C7 8 7 8 6 11 C4.99735282 9.35577799 3.99794896 7.70957779 3 6.0625 C2.443125 5.14597656 1.88625 4.22945313 1.3125 3.28515625 C0 1 0 1 0 0 Z " fill="#B89F48" transform="translate(156,301)"/>
<path d="M0 0 C2.45823172 3.68734758 3.01242616 6.69699971 4 11 C3.01 11 2.02 11 1 11 C0.67 7.37 0.34 3.74 0 0 Z " fill="#CCB151" transform="translate(198,286)"/>
<path d="M0 0 C0.99 0.33 1.98 0.66 3 1 C2.67 3.97 2.34 6.94 2 10 C-0.4294516 6.3558226 -0.16179575 4.28758728 0 0 Z " fill="#DDC459" transform="translate(191,213)"/>
<path d="M0 0 C0.33 1.32 0.66 2.64 1 4 C0.34 4 -0.32 4 -1 4 C-1.33 6.31 -1.66 8.62 -2 11 C-2.66 10.67 -3.32 10.34 -4 10 C-2.99806563 6.20696275 -2.18975773 3.28463659 0 0 Z " fill="#D0B152" transform="translate(352,192)"/>
<path d="M0 0 C0.66 0 1.32 0 2 0 C0.74194623 4.50802601 -0.90407165 7.4912812 -4 11 C-3.49357808 6.64477147 -2.61588503 3.55760365 0 0 Z " fill="#FEF8C1" transform="translate(174,178)"/>
<path d="M0 0 C0.33 0.66 0.66 1.32 1 2 C0.22265625 4.1640625 0.22265625 4.1640625 -0.9375 6.625 C-1.31777344 7.44226563 -1.69804687 8.25953125 -2.08984375 9.1015625 C-2.39019531 9.72804687 -2.69054687 10.35453125 -3 11 C-3.66 11 -4.32 11 -5 11 C-3.77472971 6.94718288 -2.30119506 3.55639236 0 0 Z " fill="#D4B356" transform="translate(367,165)"/>
<path d="M0 0 C0.33 0.99 0.66 1.98 1 3 C-1.31 4.98 -3.62 6.96 -6 9 C-6.66 8.67 -7.32 8.34 -8 8 C-5.36 5.36 -2.72 2.72 0 0 Z " fill="#BDC8C6" transform="translate(220,110)"/>
<path d="M0 0 C0.99 0.33 1.98 0.66 3 1 C3 1.66 3 2.32 3 3 C3.66 3 4.32 3 5 3 C4.34 4.65 3.68 6.3 3 8 C1.0549 5.08235 0.54723683 3.37462715 0 0 Z " fill="#E1CA59" transform="translate(278,90)"/>
<path d="M0 0 C1.68496298 0.96885372 3.35178756 1.96986723 5 3 C5 3.33 5 3.66 5 4 C-0.53846154 4.36923077 -0.53846154 4.36923077 -2.875 2.5 C-3.24625 2.005 -3.6175 1.51 -4 1 C-2.68 1.33 -1.36 1.66 0 2 C0 1.34 0 0.68 0 0 Z " fill="#D4B549" transform="translate(161,386)"/>
<path d="M0 0 C0.66 1.32 1.32 2.64 2 4 C1.01 4.495 1.01 4.495 0 5 C0 5.99 0 6.98 0 8 C-0.99 7.67 -1.98 7.34 -3 7 C-2.67 5.68 -2.34 4.36 -2 3 C-1.34 3 -0.68 3 0 3 C0 2.01 0 1.02 0 0 Z " fill="#E0B849" transform="translate(305,348)"/>
<path d="M0 0 C0.86625 0.4640625 0.86625 0.4640625 1.75 0.9375 C3.84294184 1.92583364 5.74535275 2.5168613 8 3 C8 3.66 8 4.32 8 5 C5.69 4.67 3.38 4.34 1 4 C0.67 2.68 0.34 1.36 0 0 Z " fill="#E8CC58" transform="translate(155,285)"/>
<path d="M0 0 C2 3 2 3 1.625 5.1875 C1.41875 5.785625 1.2125 6.38375 1 7 C-0.98 6.01 -2.96 5.02 -5 4 C-4.34 3.67 -3.68 3.34 -3 3 C-2.01 3.33 -1.02 3.66 0 4 C0 2.68 0 1.36 0 0 Z " fill="#FDF9D3" transform="translate(159,280)"/>
<path d="M0 0 C0.66 0.33 1.32 0.66 2 1 C0.125 6.75 0.125 6.75 -1 9 C-1.66 9 -2.32 9 -3 9 C-2.01 6.03 -1.02 3.06 0 0 Z " fill="#251B05" transform="translate(247,102)"/>
<path d="M0 0 C0.99 0.33 1.98 0.66 3 1 C3 1.66 3 2.32 3 3 C2.34 3 1.68 3 1 3 C0.67 4.98 0.34 6.96 0 9 C-0.66 8.01 -1.32 7.02 -2 6 C-1.125 2.8125 -1.125 2.8125 0 0 Z " fill="#DCB343" transform="translate(266,359)"/>
<path d="M0 0 C2.475 0.99 2.475 0.99 5 2 C5 2.99 5 3.98 5 5 C3.68 5 2.36 5 1 5 C0.67 3.35 0.34 1.7 0 0 Z " fill="#E8CD5B" transform="translate(153,345)"/>
<path d="M0 0 C0.99 0.33 1.98 0.66 3 1 C1.6875 3 1.6875 3 0 5 C-0.99 5 -1.98 5 -3 5 C-1.125 1.125 -1.125 1.125 0 0 Z " fill="#E0C956" transform="translate(376,344)"/>
<path d="M0 0 C1.32 0 2.64 0 4 0 C3.67 0.99 3.34 1.98 3 3 C2.67 2.67 2.34 2.34 2 2 C1.01 3.485 1.01 3.485 0 5 C-0.66 5 -1.32 5 -2 5 C-2.33 4.01 -2.66 3.02 -3 2 C-2.01 2 -1.02 2 0 2 C0 1.34 0 0.68 0 0 Z " fill="#EBC748" transform="translate(163,288)"/>
<path d="M0 0 C1.98 0.99 1.98 0.99 4 2 C4 2.99 4 3.98 4 5 C4.66 5 5.32 5 6 5 C5.67 6.32 5.34 7.64 5 9 C3.35 6.03 1.7 3.06 0 0 Z " fill="#281503" transform="translate(286,163)"/>
<path d="M0 0 C1.32 0 2.64 0 4 0 C4.66 1.32 5.32 2.64 6 4 C5.34 4.66 4.68 5.32 4 6 C2.68 4.02 1.36 2.04 0 0 Z " fill="#E9D45D" transform="translate(305,146)"/>
<path d="M0 0 C0.33 0 0.66 0 1 0 C0.67 3.63 0.34 7.26 0 11 C-0.33 11 -0.66 11 -1 11 C-2.25 3.375 -2.25 3.375 0 0 Z " fill="#F5F0B2" transform="translate(261,130)"/>
<path d="M0 0 C0.99 0.33 1.98 0.66 3 1 C0.03 3.475 0.03 3.475 -3 6 C-3.66 5.67 -4.32 5.34 -5 5 C-3.35 3.35 -1.7 1.7 0 0 Z " fill="#D8E4E1" transform="translate(211,119)"/>
<path d="" fill="#FFFFFF" transform="translate(0,0)"/>
<path d="" fill="#FFFFFF" transform="translate(0,0)"/>
<path d="" fill="#FFFFFF" transform="translate(0,0)"/>
<path d="" fill="#FFFFFF" transform="translate(0,0)"/>
<path d="" fill="#FFFFFF" transform="translate(0,0)"/>
<path d="" fill="#FFFFFF" transform="translate(0,0)"/>
<path d="" fill="#FFFFFF" transform="translate(0,0)"/>
<path d="" fill="#FFFFFF" transform="translate(0,0)"/>
<path d="" fill="#FFFFFF" transform="translate(0,0)"/>
<path d="" fill="#FFFFFF" transform="translate(0,0)"/>
<path d="" fill="#FFFFFF" transform="translate(0,0)"/>
<path d="" fill="#FFFFFF" transform="translate(0,0)"/>
<path d="" fill="#FFFFFF" transform="translate(0,0)"/>
<path d="" fill="#FFFFFF" transform="translate(0,0)"/>
<path d="" fill="#FFFFFF" transform="translate(0,0)"/>
<path d="" fill="#FFFFFF" transform="translate(0,0)"/>
<path d="" fill="#FFFFFF" transform="translate(0,0)"/>
<path d="" fill="#FFFFFF" transform="translate(0,0)"/>
</svg>
